<?xml version="1.0" encoding="UTF-8" standalone="no"?>
<!DOCTYPE svg PUBLIC "-//W3C//DTD SVG 1.1//EN" "http://www.w3.org/Graphics/SVG/1.1/DTD/svg11.dtd">
<svg width="100%" height="100%" viewBox="0 0 409 431" version="1.1" xmlns="http://www.w3.org/2000/svg" xmlns:xlink="http://www.w3.org/1999/xlink" xml:space="preserve" xmlns:serif="http://www.serif.com/" style="fill-rule:evenodd;clip-rule:evenodd;stroke-linejoin:round;stroke-miterlimit:2;">
    <g id="Artboard1" transform="matrix(1,0,0,1,-47.2512,-31.8618)">
        <rect x="47.251" y="31.862" width="408.828" height="430.883" style="fill:none;"/>
        <clipPath id="_clip1">
            <rect x="47.251" y="31.862" width="408.828" height="430.883"/>
        </clipPath>
        <g clip-path="url(#_clip1)">
            <g transform="matrix(1.1066,0,0,1.08976,-26.5783,-17.5777)">
                <rect x="-0.5" y="-0.5" width="512" height="512" style="fill:rgb(253,132,203);"/>
            </g>
            <g id="Layer2" transform="matrix(1,0,0,1,0.251222,0.861842)">
                <g>
                    <path d="M160.5,249.5C160.672,250.492 160.338,251.158 159.5,251.5C157.72,248.71 155.387,246.71 152.5,245.5C152.666,249.514 152.499,253.514 152,257.5C148.585,258.743 145.418,260.41 142.5,262.5C144.953,264.273 147.619,265.773 150.5,267C152.049,268.214 153.215,269.714 154,271.5C154.183,268.635 154.683,265.969 155.5,263.5L155.5,279.5C154.603,280.598 153.77,280.598 153,279.5C152,276.167 151,272.833 150,269.5C146.815,267.142 143.315,265.476 139.5,264.5C138.253,262.958 138.253,261.458 139.5,260C142.777,258.857 146.11,258.023 149.5,257.5C150.551,253.174 150.718,248.841 150,244.5C150.893,243.919 151.893,243.585 153,243.5C155.41,244.748 157.91,245.748 160.5,246.5L160.5,249.5Z" style="fill:rgb(238,149,204);"/>
                </g>
                <g>
                    <path d="M159.5,251.5C156.471,254.901 155.138,258.901 155.5,263.5C154.683,265.969 154.183,268.635 154,271.5C153.215,269.714 152.049,268.214 150.5,267C147.619,265.773 144.953,264.273 142.5,262.5C145.418,260.41 148.585,258.743 152,257.5C152.499,253.514 152.666,249.514 152.5,245.5C155.387,246.71 157.72,248.71 159.5,251.5Z" style="fill:rgb(254,237,251);"/>
                </g>
            </g>
            <g id="Layer4" transform="matrix(0.717607,0,0,0.717607,6.75507,111.911)">
                <g transform="matrix(0.921366,-0.0968395,0.106128,1.00974,15.2037,-1.77038)">
                    <path d="M178.725,238.628C179.027,243.342 176.468,262.88 177.5,267.5C178.107,267.376 178.44,267.043 178.5,266.5C180.196,265.909 181.529,266.742 182.5,269C183.185,271.795 183.685,274.628 184,277.5C184.716,279.879 185.883,281.879 187.5,283.5C188.652,289.757 190.318,295.757 192.5,301.5C194.279,306.015 194.779,310.682 194,315.5C190.843,320.764 187.148,317.669 181.972,314.405C175.736,303.882 172.756,297.264 167.992,285.787C167.111,281.578 163.582,271.831 162.129,268.04L162.129,267.04C160.396,256.555 166.325,238.81 174.725,232.628C176.242,232.617 177.409,231.951 178.225,230.628C178.461,232.892 178.961,235.059 179.725,237.128C179.169,237.511 178.836,238.011 178.725,238.628Z" style="fill:rgb(252,248,252);"/>
                </g>
                <g transform="matrix(0.921366,-0.0968395,0.106128,1.00974,15.2037,-1.77038)">
                    <path d="M174.097,238.088C174.43,237.421 180.66,231.715 181.043,232.271C180.04,236.722 178.281,254.538 180.5,258.5C179.833,260.5 179.167,262.5 178.5,264.5C178.636,261.449 178.302,258.449 177.5,255.5C177.253,254.287 176.586,253.62 175.5,253.5C175.611,252.883 177.225,242.656 177.781,242.273C177.907,238.711 175.614,238.077 174.097,238.088Z" style="fill:rgb(231,181,227);"/>
                </g>
                <g transform="matrix(0.921366,-0.0968395,0.106128,1.00974,15.2037,-1.77038)">
                    <path d="M175.5,253.5C176.586,253.62 177.253,254.287 177.5,255.5C178.302,258.449 178.636,261.449 178.5,264.5L178.5,266.5C178.44,267.043 178.107,267.376 177.5,267.5C176.468,262.88 175.802,258.214 175.5,253.5Z" style="fill:rgb(64,30,75);"/>
                </g>
                <g transform="matrix(0.921366,-0.0968395,0.106128,1.00974,15.2037,-1.77038)">
                    <path d="M187.5,256.5L188.5,256.5C188.966,265.96 190.299,275.293 192.5,284.5C193.823,290.105 194.823,295.771 195.5,301.5C194.167,299.167 192.833,296.833 191.5,294.5L191.5,292.5C189.154,280.718 187.82,268.718 187.5,256.5Z" style="fill:rgb(225,118,204);"/>
                </g>
                <g transform="matrix(0.921366,-0.0968395,0.106128,1.00974,15.2037,-1.77038)">
                    <path d="M180.5,258.5C183.703,266.577 186.036,274.91 187.5,283.5C185.883,281.879 184.716,279.879 184,277.5C183.685,274.628 183.185,271.795 182.5,269C181.529,266.742 180.196,265.909 178.5,266.5L178.5,264.5C179.167,262.5 179.833,260.5 180.5,258.5Z" style="fill:rgb(253,228,249);"/>
                </g>
                <g transform="matrix(0.921366,-0.0968395,0.106128,1.00974,15.2037,-1.77038)">
                    <path d="M187.5,283.5C188.553,286.608 189.886,289.608 191.5,292.5L191.5,294.5C191.993,296.806 192.326,299.139 192.5,301.5C190.318,295.757 188.652,289.757 187.5,283.5Z" style="fill:rgb(251,216,244);"/>
                </g>
                <g transform="matrix(0.921366,-0.0968395,0.106128,1.00974,15.2037,-1.77038)">
                    <path d="M191.5,294.5C192.833,296.833 194.167,299.167 195.5,301.5L195.5,303.5C195.425,309.586 195.591,315.586 196,321.5C192.142,322.718 187.975,322.718 183.5,321.5C183.167,320.5 182.5,319.833 181.5,319.5L181.5,318.5C186.676,321.764 190.843,320.764 194,315.5C194.779,310.682 194.279,306.015 192.5,301.5C192.326,299.139 191.993,296.806 191.5,294.5Z" style="fill:rgb(237,151,206);"/>
                </g>
                <g transform="matrix(0.921366,-0.0968395,0.106128,1.00974,15.2037,-1.77038)">
                    <path d="M195.5,303.5C197.257,309.388 199.091,315.388 201,321.5C201.876,328.009 199.043,330.176 192.5,328C188.724,326.791 185.724,324.624 183.5,321.5C187.975,322.718 192.142,322.718 196,321.5C195.591,315.586 195.425,309.586 195.5,303.5Z" style="fill:rgb(237,126,205);"/>
                </g>
            </g>
            <g id="Layer3" transform="matrix(1,0,0,1,0.251222,0.861842)">
                <path d="M179.256,329.271C178.581,328.649 182.396,326.54 184.759,329.234C185.23,329.771 186.379,330.518 186.15,331.194C185.921,331.871 184.349,332.374 183.649,332.514C179.79,333.289 176.376,333.871 173.122,333.807C169.623,333.738 166.877,331.787 163.676,329.097C162.628,328.216 161.531,327.256 160.343,326.257C159.468,325.521 153.173,318.795 153.173,318.795C153.173,318.795 149.489,313.104 148.206,309.322C147.12,306.122 143.057,295.709 141.959,286.529C141.453,282.293 141.416,278.697 142.018,276.795C143.283,272.804 148.147,263.779 157.347,257.552C157.963,257.135 160.569,260.254 160.746,260.655C159.428,261.542 155.949,264.013 155.744,264.628C151.253,269.564 146.735,275.151 145.832,278.003C145.333,279.576 145.512,282.55 145.931,286.054C146.992,294.933 150.944,304.942 151.994,308.037C155.069,317.1 161.663,322.141 162.917,323.195C168.867,328.197 172.962,330.326 179.256,329.271Z" style="fill:rgb(89,7,111);"/>
            </g>
            <g id="Layer1" transform="matrix(1,0,0,1,0.251222,0.861842)">
                <g>
                    <path d="M260.5,82.5C259.069,81.098 257.902,79.431 257,77.5C254.29,81.753 251.457,85.92 248.5,90C244.749,90.749 241.082,91.749 237.5,93C238.252,93.671 238.586,94.504 238.5,95.5C236.107,94.647 234.774,92.981 234.5,90.5C238.785,89.792 243.118,89.292 247.5,89C249.495,86.843 250.828,84.343 251.5,81.5C252.912,79.02 254.578,76.687 256.5,74.5C258.905,76.642 260.238,79.309 260.5,82.5Z" style="fill:rgb(252,217,243);"/>
                </g>
                <g>
                    <path d="M260.5,82.5C261.864,84.22 262.864,86.22 263.5,88.5C268.301,89.182 272.967,90.349 277.5,92C275.263,95.869 272.097,98.702 268,100.5C267.465,105.092 267.965,109.592 269.5,114C269.167,114.833 268.833,115.667 268.5,116.5C263.967,115.056 259.634,113.389 255.5,111.5C252.459,111.55 249.792,112.55 247.5,114.5L244.5,114.5C247.516,106.378 245.516,100.045 238.5,95.5C238.586,94.504 238.252,93.671 237.5,93C241.082,91.749 244.749,90.749 248.5,90C251.457,85.92 254.29,81.753 257,77.5C257.902,79.431 259.069,81.098 260.5,82.5Z" style="fill:rgb(253,249,252);"/>
                </g>
                <g>
                    <path d="M212.5,108.5C206.713,109.136 202.88,106.803 201,101.5C200.184,100.177 199.017,99.511 197.5,99.5C196.417,99.539 195.417,99.873 194.5,100.5C193.41,103.878 192.41,107.211 191.5,110.5C188.213,111.161 184.88,111.661 181.5,112C180.748,112.671 180.414,113.504 180.5,114.5C179.566,113.432 179.232,112.099 179.5,110.5C186.934,109.558 191.6,105.558 193.5,98.5C192.833,97.833 192.167,97.167 191.5,96.5C195,95.843 198.167,96.843 201,99.5C204.769,96.677 205.769,97.344 204,101.5C203.346,100.304 202.846,100.304 202.5,101.5C204.22,102.934 206.22,103.767 208.5,104C208.043,104.414 207.709,104.914 207.5,105.5C209.655,106.001 211.322,107.001 212.5,108.5Z" style="fill:rgb(244,139,202);"/>
                </g>
                <g>
                    <path d="M234.5,90.5C234.774,92.981 236.107,94.647 238.5,95.5C239.713,98.225 241.546,100.559 244,102.5C244.781,105.817 244.281,108.817 242.5,111.5C242.665,108.482 242.498,105.482 242,102.5C238.138,99.638 234.971,96.138 232.5,92C232.836,90.97 233.503,90.47 234.5,90.5Z" style="fill:rgb(235,144,196);"/>
                </g>
                <g>
                    <path d="M320.5,107.5L320.5,110.5C318.805,108.268 317.638,105.601 317,102.5C316.333,103.833 315.667,103.833 315,102.5C313.953,105.295 312.453,107.628 310.5,109.5C311.627,105.369 313.627,101.702 316.5,98.5C318.284,101.305 319.617,104.305 320.5,107.5Z" style="fill:rgb(253,227,249);"/>
                </g>
                <g>
                    <path d="M197.5,99.5C198.931,101.189 199.764,103.189 200,105.5C201.5,106.333 202.667,107.5 203.5,109C206.882,109.176 210.215,109.676 213.5,110.5C212.533,113.129 210.867,115.129 208.5,116.5C209.048,114.606 210.048,112.94 211.5,111.5C208.553,110.679 205.553,110.179 202.5,110C201.747,108.513 200.914,108.346 200,109.5C199.641,106.456 198.974,106.122 198,108.5C197.667,106.833 197.333,105.167 197,103.5C195.684,106.308 193.85,108.641 191.5,110.5C192.41,107.211 193.41,103.878 194.5,100.5C195.417,99.873 196.417,99.539 197.5,99.5Z" style="fill:rgb(252,229,247);"/>
                </g>
                <g>
                    <path d="M208.5,116.5C208.018,120.777 208.018,125.111 208.5,129.5C205.984,128.67 203.65,127.67 201.5,126.5C198.97,125.224 196.303,125.224 193.5,126.5C192.686,124.234 192.186,121.9 192,119.5C189.049,117.355 185.883,115.688 182.5,114.5C185.5,113.167 188.5,111.833 191.5,110.5C193.85,108.641 195.684,106.308 197,103.5C197.333,105.167 197.667,106.833 198,108.5C198.974,106.122 199.641,106.456 200,109.5C200.914,108.346 201.747,108.513 202.5,110C205.553,110.179 208.553,110.679 211.5,111.5C210.048,112.94 209.048,114.606 208.5,116.5Z" style="fill:rgb(254,249,253);"/>
                </g>
                <g>
                    <path d="M320.5,107.5C319.617,104.305 318.284,101.305 316.5,98.5C313.627,101.702 311.627,105.369 310.5,109.5L300.5,109.5C300.831,111.322 301.498,112.989 302.5,114.5C300.003,113.871 298.67,112.204 298.5,109.5C298.611,108.883 298.944,108.383 299.5,108C302.553,107.821 305.553,107.321 308.5,106.5C310.732,103.37 312.398,100.037 313.5,96.5C315.262,96.357 316.929,96.691 318.5,97.5C320.026,100.654 320.693,103.987 320.5,107.5Z" style="fill:rgb(236,158,204);"/>
                </g>
                <g>
                    <path d="M320.5,110.5C323.127,111.092 325.794,111.425 328.5,111.5C329.091,112.151 329.757,112.818 330.5,113.5C328.486,115.845 326.153,117.845 323.5,119.5C322.511,123.107 322.177,126.774 322.5,130.5C318.912,129.415 315.412,128.082 312,126.5C309.178,127.275 306.344,127.942 303.5,128.5L303.5,125.5C303.723,123.658 304.057,121.825 304.5,120C304.046,118.061 303.379,116.228 302.5,114.5C301.498,112.989 300.831,111.322 300.5,109.5L310.5,109.5C312.453,107.628 313.953,105.295 315,102.5C315.667,103.833 316.333,103.833 317,102.5C317.638,105.601 318.805,108.268 320.5,110.5Z" style="fill:rgb(253,247,252);"/>
                </g>
                <g>
                    <path d="M191.5,110.5C188.5,111.833 185.5,113.167 182.5,114.5L180.5,114.5C180.414,113.504 180.748,112.671 181.5,112C184.88,111.661 188.213,111.161 191.5,110.5Z" style="fill:rgb(254,220,248);"/>
                </g>
                <g>
                    <path d="M238.5,95.5C245.516,100.045 247.516,106.378 244.5,114.5L247.5,114.5C243.521,118.869 241.854,117.869 242.5,111.5C244.281,108.817 244.781,105.817 244,102.5C241.546,100.559 239.713,98.225 238.5,95.5Z" style="fill:rgb(250,210,239);"/>
                </g>
                <g>
                    <path d="M242.5,111.5C241.854,117.869 243.521,118.869 247.5,114.5C249.792,112.55 252.459,111.55 255.5,111.5C259.634,113.389 263.967,115.056 268.5,116.5C268.833,115.667 269.167,114.833 269.5,114C267.965,109.592 267.465,105.092 268,100.5C272.097,98.702 275.263,95.869 277.5,92C272.967,90.349 268.301,89.182 263.5,88.5C262.864,86.22 261.864,84.22 260.5,82.5C260.238,79.309 258.905,76.642 256.5,74.5C254.578,76.687 252.912,79.02 251.5,81.5C251.201,79.396 251.534,77.396 252.5,75.5C254.169,74.329 255.669,72.996 257,71.5C259.305,72.976 261.138,74.976 262.5,77.5C263.566,81.009 264.566,84.509 265.5,88C270.086,88.197 274.586,88.697 279,89.5C279.667,91.167 279.667,92.833 279,94.5C275.068,96.446 272.401,99.446 271,103.5C271.051,108.478 271.218,113.478 271.5,118.5C269.473,118.662 267.473,118.495 265.5,118C259.008,113.351 252.675,113.684 246.5,119C244.866,119.494 243.199,119.66 241.5,119.5C241.194,116.615 241.527,113.948 242.5,111.5Z" style="fill:rgb(237,151,202);"/>
                </g>
                <g>
                    <path d="M197.5,99.5C199.017,99.511 200.184,100.177 201,101.5C202.88,106.803 206.713,109.136 212.5,108.5L215.5,108.5C215.203,112.326 213.37,115.326 210,117.5C209.411,120.715 209.911,123.715 211.5,126.5C211.794,129.259 210.627,130.925 208,131.5C201.906,126.877 196.74,127.71 192.5,134C191.167,134.667 189.833,134.667 188.5,134C187.7,129.92 187.2,125.753 187,121.5C184.195,119.869 182.362,117.536 181.5,114.5L182.5,114.5C184.023,117.364 186.357,119.031 189.5,119.5C189.176,123.555 189.509,127.555 190.5,131.5C193.385,128.19 197.052,126.523 201.5,126.5C203.65,127.67 205.984,128.67 208.5,129.5C208.018,125.111 208.018,120.777 208.5,116.5C210.867,115.129 212.533,113.129 213.5,110.5C210.215,109.676 206.882,109.176 203.5,109C202.667,107.5 201.5,106.333 200,105.5C199.764,103.189 198.931,101.189 197.5,99.5Z" style="fill:rgb(234,148,200);"/>
                </g>
                <g>
                    <path d="M182.5,114.5C185.883,115.688 189.049,117.355 192,119.5C192.186,121.9 192.686,124.234 193.5,126.5C196.303,125.224 198.97,125.224 201.5,126.5C197.052,126.523 193.385,128.19 190.5,131.5C189.509,127.555 189.176,123.555 189.5,119.5C186.357,119.031 184.023,117.364 182.5,114.5Z" style="fill:rgb(252,228,246);"/>
                </g>
                <g>
                    <path d="M328.5,111.5L332.5,111.5C332.649,112.552 332.483,113.552 332,114.5C329.937,116.734 327.771,118.734 325.5,120.5C324.883,120.611 324.383,120.944 324,121.5C323.667,124.833 323.333,128.167 323,131.5C322.586,131.957 322.086,132.291 321.5,132.5C318.567,130.863 315.567,129.53 312.5,128.5C309.068,130.088 305.401,130.755 301.5,130.5C301.402,128.447 302.069,126.78 303.5,125.5L303.5,128.5C306.344,127.942 309.178,127.275 312,126.5C315.412,128.082 318.912,129.415 322.5,130.5C322.177,126.774 322.511,123.107 323.5,119.5C326.153,117.845 328.486,115.845 330.5,113.5C329.757,112.818 329.091,112.151 328.5,111.5Z" style="fill:rgb(235,163,208);"/>
                </g>
                <g>
                    <path d="M298.5,109.5C298.67,112.204 300.003,113.871 302.5,114.5C303.379,116.228 304.046,118.061 304.5,120C304.057,121.825 303.723,123.658 303.5,125.5C302.069,126.78 301.402,128.447 301.5,130.5C305.401,130.755 309.068,130.088 312.5,128.5C315.567,129.53 318.567,130.863 321.5,132.5C322.086,132.291 322.586,131.957 323,131.5C323.333,128.167 323.667,124.833 324,121.5C324.383,120.944 324.883,120.611 325.5,120.5C325.663,125.547 325.329,130.547 324.5,135.5C322.801,135.66 321.134,135.494 319.5,135C317.554,133.093 315.554,131.26 313.5,129.5C312.369,130.751 311.036,131.751 309.5,132.5C306.898,131.945 304.231,131.779 301.5,132C299.993,130.527 299.326,128.693 299.5,126.5C299.481,123.761 300.148,121.261 301.5,119C300.215,116.361 298.882,113.694 297.5,111C297.57,110.235 297.903,109.735 298.5,109.5Z" style="fill:rgb(242,137,199);"/>
                </g>
                <g>
                    <path d="M366.5,150.5C360.282,151.838 356.949,149.505 356.5,143.5C356.824,140.32 355.49,139.153 352.5,140C351.58,143.438 349.913,146.438 347.5,149C346.207,149.49 344.873,149.657 343.5,149.5C344.531,148.751 345.698,148.085 347,147.5C347.842,144.311 349.175,141.311 351,138.5C353.267,137.065 355.267,137.398 357,139.5C358.722,142.279 359.889,145.279 360.5,148.5C362.898,148.259 364.898,148.926 366.5,150.5Z" style="fill:rgb(234,150,202);"/>
                </g>
                <g>
                    <path d="M168.5,164.5L168.5,170.5C164.978,169.646 161.645,168.313 158.5,166.5C156.403,166.977 154.403,167.643 152.5,168.5C152.881,167.069 153.881,166.236 155.5,166C158.817,165.502 162.15,165.335 165.5,165.5C165.756,163.208 165.423,161.041 164.5,159C166.351,157.316 168.018,155.483 169.5,153.5C164.538,152.882 160.538,150.549 157.5,146.5C154.737,149.588 151.404,151.921 147.5,153.5C150.907,157.876 152.24,162.876 151.5,168.5C150.883,168.611 150.383,168.944 150,169.5C149.667,165.833 149.333,162.167 149,158.5C139.789,152.302 140.955,149.135 152.5,149C154.389,146.041 156.389,143.208 158.5,140.5C161.681,143.024 163.348,146.357 163.5,150.5C174.115,149.3 175.615,151.967 168,158.5C167.211,160.712 167.378,162.712 168.5,164.5Z" style="fill:rgb(253,230,249);"/>
                </g>
                <g>
                    <path d="M356.5,143.5C355.504,143.586 354.671,143.252 354,142.5C352.346,145.121 350.513,147.621 348.5,150C346.866,150.494 345.199,150.66 343.5,150.5L343.5,149.5C344.873,149.657 346.207,149.49 347.5,149C349.913,146.438 351.58,143.438 352.5,140C355.49,139.153 356.824,140.32 356.5,143.5Z" style="fill:rgb(249,210,239);"/>
                </g>
                <g>
                    <path d="M356.5,143.5C356.949,149.505 360.282,151.838 366.5,150.5L367.5,150.5C367.804,151.15 368.137,151.817 368.5,152.5C367.476,153.852 366.476,155.185 365.5,156.5C364.504,156.414 363.671,156.748 363,157.5C362.501,161.486 362.334,165.486 362.5,169.5L359.5,169.5C355.5,165.5 351.5,165.5 347.5,169.5L344.5,169.5C344.788,166.134 344.954,162.8 345,159.5C342.963,157.294 340.797,155.294 338.5,153.5C337.226,152.811 337.226,151.977 338.5,151C340.134,150.506 341.801,150.34 343.5,150.5C345.199,150.66 346.866,150.494 348.5,150C350.513,147.621 352.346,145.121 354,142.5C354.671,143.252 355.504,143.586 356.5,143.5Z" style="fill:rgb(254,247,253);"/>
                </g>
                <g>
                    <path d="M152.5,168.5L151.5,168.5C152.24,162.876 150.907,157.876 147.5,153.5C151.404,151.921 154.737,149.588 157.5,146.5C160.538,150.549 164.538,152.882 169.5,153.5C168.018,155.483 166.351,157.316 164.5,159C165.423,161.041 165.756,163.208 165.5,165.5C162.15,165.335 158.817,165.502 155.5,166C153.881,166.236 152.881,167.069 152.5,168.5Z" style="fill:rgb(253,251,253);"/>
                </g>
                <g>
                    <path d="M338.5,153.5C340.797,155.294 342.963,157.294 345,159.5C344.954,162.8 344.788,166.134 344.5,169.5L347.5,169.5C343.672,171.361 342.005,170.027 342.5,165.5C344.378,161.565 343.378,158.565 339.5,156.5C338.873,155.583 338.539,154.583 338.5,153.5Z" style="fill:rgb(233,166,208);"/>
                </g>
                <g>
                    <path d="M365.5,156.5C365.217,157.289 364.717,157.956 364,158.5C363.828,162.871 363.328,167.204 362.5,171.5C361.261,171.058 360.261,170.391 359.5,169.5L362.5,169.5C362.334,165.486 362.501,161.486 363,157.5C363.671,156.748 364.504,156.414 365.5,156.5Z" style="fill:rgb(245,194,232);"/>
                </g>
                <g>
                    <path d="M168.5,164.5C167.378,162.712 167.211,160.712 168,158.5C175.615,151.967 174.115,149.3 163.5,150.5C163.348,146.357 161.681,143.024 158.5,140.5C156.389,143.208 154.389,146.041 152.5,149C140.955,149.135 139.789,152.302 149,158.5C149.333,162.167 149.667,165.833 150,169.5C150.383,168.944 150.883,168.611 151.5,168.5L152.5,168.5C154.403,167.643 156.403,166.977 158.5,166.5C161.645,168.313 164.978,169.646 168.5,170.5L168.5,165.5C170.84,166.572 171.173,168.239 169.5,170.5C168.667,170.833 167.833,171.167 167,171.5C164.12,170.644 161.287,169.644 158.5,168.5C155.893,169.137 153.56,170.304 151.5,172C150.167,172.667 148.833,172.667 147.5,172C146.697,167.586 146.197,163.086 146,158.5C144.421,156.959 142.587,155.792 140.5,155C138.777,151.592 139.777,149.259 143.5,148C151.322,148.845 155.488,145.345 156,137.5C157.133,135.789 158.633,135.289 160.5,136C163.515,138.863 165.349,142.363 166,146.5C168.064,145.409 170.231,145.242 172.5,146C165.833,146.667 165.833,147.333 172.5,148C175.006,149.516 175.84,151.682 175,154.5C170.542,156.439 168.375,159.772 168.5,164.5Z" style="fill:rgb(235,148,201);"/>
                </g>
                <g>
                    <path d="M367.5,150.5C369.252,150.418 370.252,151.251 370.5,153C369.056,155.449 367.222,157.615 365,159.5C364.408,162.694 364.574,165.861 365.5,169C365.399,171.601 364.065,173.101 361.5,173.5C356.354,168.198 351.354,168.365 346.5,174C344.866,174.494 343.199,174.66 341.5,174.5C341.19,171.287 341.523,168.287 342.5,165.5C342.005,170.027 343.672,171.361 347.5,169.5C351.5,165.5 355.5,165.5 359.5,169.5C360.261,170.391 361.261,171.058 362.5,171.5C363.328,167.204 363.828,162.871 364,158.5C364.717,157.956 365.217,157.289 365.5,156.5C366.476,155.185 367.476,153.852 368.5,152.5C368.137,151.817 367.804,151.15 367.5,150.5Z" style="fill:rgb(235,145,200);"/>
                </g>
                <g>
                    <path d="M295.5,209.5C290.222,202.543 284.889,195.543 279.5,188.5C267.374,178.904 254.041,176.904 239.5,182.5C240.36,180.386 242.027,179.22 244.5,179C251.833,178.333 259.167,178.333 266.5,179C268.808,180.867 271.475,181.867 274.5,182C281.296,187.288 287.462,193.121 293,199.5C294.727,202.618 295.561,205.951 295.5,209.5Z" style="fill:rgb(239,127,211);"/>
                </g>
                <g>
                    <path d="M248.5,186.5L249.5,186.5C253.524,187.038 257.524,187.705 261.5,188.5C261.708,193.422 262.875,198.089 265,202.5C267.564,200.149 269.397,197.315 270.5,194C271.793,193.51 273.127,193.343 274.5,193.5C273.441,207.038 272.774,220.704 272.5,234.5L272.5,244.5C270.404,269.85 268.738,295.183 267.5,320.5C265.901,320.232 264.568,320.566 263.5,321.5C264.183,323.176 265.517,323.843 267.5,323.5C269.202,325.8 269.868,328.467 269.5,331.5L269.5,343.5C268.883,343.611 268.383,343.944 268,344.5C267.5,352.827 267.334,361.16 267.5,369.5C263.018,370.326 258.351,370.826 253.5,371C252.244,371.417 251.577,372.25 251.5,373.5C247.176,372.479 245.176,374.479 245.5,379.5L242.5,379.5C242.857,351.568 242.024,323.568 240,295.5C239.43,288.592 238.263,281.925 236.5,275.5C235.838,271.534 235.505,267.534 235.5,263.5C235.877,258.547 235.211,253.881 233.5,249.5C233.587,244.463 233.254,239.463 232.5,234.5C230.514,225.649 230.014,216.649 231,207.5C231.853,202.073 234.186,197.407 238,193.5C238.333,193.833 238.667,194.167 239,194.5C239.483,193.552 239.649,192.552 239.5,191.5C241.927,191.477 244.26,190.977 246.5,190C247.823,189.184 248.489,188.017 248.5,186.5Z" style="fill:rgb(253,252,253);"/>
                </g>
                <g>
                    <path d="M371.5,199.5C371.751,201.17 372.418,202.67 373.5,204C376.117,204.822 378.784,205.322 381.5,205.5L381.5,208.5C379.659,209.402 378.326,210.736 377.5,212.5C376.523,215.287 376.19,218.287 376.5,221.5C373.075,219.799 369.409,218.633 365.5,218C368.157,213.732 367.49,213.399 363.5,217C363.833,217.333 364.167,217.667 364.5,218C363.552,218.483 362.552,218.649 361.5,218.5C361.802,215.941 361.468,213.607 360.5,211.5C358.475,209.804 356.475,208.137 354.5,206.5C357.488,204.86 360.821,204.026 364.5,204C365.286,199.67 367.62,198.17 371.5,199.5Z" style="fill:rgb(254,249,253);"/>
                </g>
                <g>
                    <path d="M153.5,217.5C152.387,216.054 152.22,214.387 153,212.5C154.376,211.295 155.542,209.962 156.5,208.5C156.5,207.833 156.833,207.5 157.5,207.5C159.466,206.745 159.8,205.579 158.5,204C155.5,203.667 152.5,203.333 149.5,203C148.672,201.008 147.339,199.508 145.5,198.5C144.608,192.256 142.942,191.923 140.5,197.5C139.275,198.937 138.275,200.604 137.5,202.5C134.179,203.33 130.846,203.997 127.5,204.5C127.47,203.503 127.97,202.836 129,202.5C135.11,201.387 138.943,197.887 140.5,192C142.902,191.186 145.235,191.353 147.5,192.5C148.816,195.384 149.816,198.384 150.5,201.5C153.758,202.417 157.091,202.751 160.5,202.5C160.662,204.527 160.495,206.527 160,208.5C156.017,210.299 153.851,213.299 153.5,217.5Z" style="fill:rgb(237,145,199);"/>
                </g>
                <g>
                    <path d="M145.5,198.5C145.869,200.441 146.536,202.275 147.5,204C150.167,204.333 152.833,204.667 155.5,205C156.756,205.417 157.423,206.25 157.5,207.5C156.833,207.5 156.5,207.833 156.5,208.5C154.629,208.859 153.129,209.859 152,211.5C151.817,214.365 151.317,217.031 150.5,219.5C148.534,218.559 146.534,217.559 144.5,216.5C143.468,218.04 142.135,218.54 140.5,218C142.595,217.444 142.762,216.944 141,216.5C139.395,217.101 138.062,218.101 137,219.5C139.05,214.043 137.217,209.876 131.5,207C133.769,206.242 135.936,206.409 138,207.5C140.096,206.285 139.929,205.451 137.5,205C139.693,202.975 140.693,200.475 140.5,197.5C142.942,191.923 144.608,192.256 145.5,198.5Z" style="fill:rgb(253,249,252);"/>
                </g>
                <g>
                    <path d="M295.5,209.5C296.529,211.517 297.529,213.517 298.5,215.5C296.468,214.952 295.468,213.619 295.5,211.5C293.585,211.216 291.919,211.549 290.5,212.5C285.779,208.047 281.779,203.047 278.5,197.5C278.167,196.5 277.5,195.833 276.5,195.5C276.167,194.5 275.5,193.833 274.5,193.5C272.913,190.217 270.579,188.883 267.5,189.5C266.5,188.833 265.5,188.167 264.5,187.5C261.618,186.087 258.451,185.421 255,185.5C252.967,185.506 251.134,185.839 249.5,186.5L248.5,186.5C240.833,188.161 235.166,192.494 231.5,199.5C230.094,199.973 229.427,200.973 229.5,202.5C225.897,205.926 221.563,207.592 216.5,207.5C210.855,209.653 205.188,211.82 199.5,214C197.155,217.193 194.155,219.36 190.5,220.5C189.654,225.374 187.654,229.707 184.5,233.5C184.624,234.107 184.957,234.44 185.5,234.5C182.521,238.146 179.188,241.479 175.5,244.5C174.391,244.557 173.391,244.89 172.5,245.5L166.5,245.5C166.923,248.288 165.923,250.288 163.5,251.5C162.818,250.757 162.151,250.091 161.5,249.5C166.479,243.854 171.812,238.521 177.5,233.5C178.721,232.972 179.887,232.305 181,231.5C183.377,225.238 186.877,219.738 191.5,215C201.982,208.425 212.982,202.925 224.5,198.5C225.467,196.37 226.634,194.37 228,192.5C231.036,189.296 234.203,186.296 237.5,183.5C238.492,183.672 239.158,183.338 239.5,182.5C254.041,176.904 267.374,178.904 279.5,188.5C284.889,195.543 290.222,202.543 295.5,209.5Z" style="fill:rgb(97,11,110);"/>
                </g>
                <g>
                    <path d="M264.5,187.5C265.5,188.167 266.5,188.833 267.5,189.5C267.693,193.013 267.026,196.346 265.5,199.5C264.509,195.555 264.176,191.555 264.5,187.5Z" style="fill:rgb(98,65,101);"/>
                </g>
                <g>
                    <path d="M249.5,186.5C251.134,185.839 252.967,185.506 255,185.5C258.451,185.421 261.618,186.087 264.5,187.5C264.176,191.555 264.509,195.555 265.5,199.5C267.026,196.346 267.693,193.013 267.5,189.5C270.579,188.883 272.913,190.217 274.5,193.5C273.127,193.343 271.793,193.51 270.5,194C269.397,197.315 267.564,200.149 265,202.5C262.875,198.089 261.708,193.422 261.5,188.5C257.524,187.705 253.524,187.038 249.5,186.5Z" style="fill:rgb(249,230,249);"/>
                </g>
                <g>
                    <path d="M145.5,198.5C147.339,199.508 148.672,201.008 149.5,203C152.5,203.333 155.5,203.667 158.5,204C159.8,205.579 159.466,206.745 157.5,207.5C157.423,206.25 156.756,205.417 155.5,205C152.833,204.667 150.167,204.333 147.5,204C146.536,202.275 145.869,200.441 145.5,198.5Z" style="fill:rgb(244,193,227);"/>
                </g>
                <g>
                    <path d="M371.5,199.5C367.62,198.17 365.286,199.67 364.5,204C360.821,204.026 357.488,204.86 354.5,206.5C353.662,206.158 353.328,205.492 353.5,204.5C356.787,203.839 360.12,203.339 363.5,203C363.702,198.818 365.535,195.651 369,193.5C371.034,194.944 371.868,196.944 371.5,199.5Z" style="fill:rgb(253,220,244);"/>
                </g>
                <g>
                    <path d="M371.5,199.5C372.837,200.315 373.837,201.482 374.5,203C377.224,203.27 379.891,203.77 382.5,204.5C383.809,206.24 383.476,207.573 381.5,208.5L381.5,205.5C378.784,205.322 376.117,204.822 373.5,204C372.418,202.67 371.751,201.17 371.5,199.5Z" style="fill:rgb(252,213,244);"/>
                </g>
                <g>
                    <path d="M127.5,207.5C130.263,207.744 132.429,209.077 134,211.5C134.497,215.524 134.331,219.524 133.5,223.5C132.679,220.359 132.179,217.025 132,213.5C129.695,211.978 128.195,209.978 127.5,207.5Z" style="fill:rgb(234,151,198);"/>
                </g>
                <g>
                    <path d="M231.5,199.5C229.698,209.723 229.032,220.056 229.5,230.5C228.208,221.295 228.208,211.962 229.5,202.5C229.427,200.973 230.094,199.973 231.5,199.5Z" style="fill:rgb(225,157,200);"/>
                </g>
                <g>
                    <path d="M257.5,211.5C258.766,212.09 260.099,212.59 261.5,213C261.167,213.333 260.833,213.667 260.5,214C263.466,220.836 263.132,227.502 259.5,234C259.833,234.333 260.167,234.667 260.5,235C258.121,237.142 256.121,236.976 254.5,234.5C256.979,235.582 258.479,234.582 259,231.5C259.99,224.661 259.49,217.995 257.5,211.5Z" style="fill:rgb(249,236,251);"/>
                </g>
                <g>
                    <path d="M237.5,183.5C234.203,186.296 231.036,189.296 228,192.5C226.634,194.37 225.467,196.37 224.5,198.5C212.982,202.925 201.982,208.425 191.5,215C186.877,219.738 183.377,225.238 181,231.5C179.887,232.305 178.721,232.972 177.5,233.5C179.598,230.778 181.265,227.111 182.5,222.5C185.803,217.356 189.803,212.856 194.5,209C203.634,205.598 212.634,201.931 221.5,198C224.489,194.373 227.489,190.706 230.5,187C232.527,185.121 234.86,183.954 237.5,183.5Z" style="fill:rgb(240,130,212);"/>
                </g>
                <g>
                    <path d="M353.5,204.5C353.328,205.492 353.662,206.158 354.5,206.5C356.475,208.137 358.475,209.804 360.5,211.5C359.239,215.374 358.572,219.374 358.5,223.5C361.312,222.042 364.312,221.042 367.5,220.5C370.308,220.078 372.308,221.078 373.5,223.5C369.857,221.891 366.524,222.224 363.5,224.5L357.5,224.5C357.756,220.138 357.923,215.805 358,211.5C356.172,209.919 354.172,208.585 352,207.5C351.275,205.843 351.775,204.843 353.5,204.5Z" style="fill:rgb(232,157,202);"/>
                </g>
                <g>
                    <path d="M360.5,211.5C361.468,213.607 361.802,215.941 361.5,218.5C362.552,218.649 363.552,218.483 364.5,218C364.167,217.667 363.833,217.333 363.5,217C367.49,213.399 368.157,213.732 365.5,218C369.409,218.633 373.075,219.799 376.5,221.5C376.19,218.287 376.523,215.287 377.5,212.5C377.552,216.198 377.886,219.865 378.5,223.5L373.5,223.5C372.308,221.078 370.308,220.078 367.5,220.5C364.312,221.042 361.312,222.042 358.5,223.5C358.572,219.374 359.239,215.374 360.5,211.5Z" style="fill:rgb(252,228,247);"/>
                </g>
                <g>
                    <path d="M211.5,228.5C209.77,232.171 208.77,236.171 208.5,240.5C209.419,242.903 209.585,245.236 209,247.5C213.081,251.408 215.915,250.408 217.5,244.5C216.517,240.085 216.517,237.752 217.5,237.5L220.5,237.5C221.13,241.048 222.13,244.381 223.5,247.5C224.167,251.5 224.833,255.5 225.5,259.5C226.301,275.495 226.468,291.495 226,307.5C224.534,311.029 223.534,314.695 223,318.5C220.665,320.167 218.831,322.001 217.5,324C215.5,324.667 213.5,324.667 211.5,324C210.696,322.229 209.529,320.729 208,319.5C204.673,306.637 201.673,293.637 199,280.5C198.066,279.142 197.232,277.808 196.5,276.5C195.699,274.958 195.366,273.292 195.5,271.5C195.706,268.505 195.04,265.838 193.5,263.5C193.326,261.139 192.993,258.806 192.5,256.5C191.928,254.745 191.094,253.078 190,251.5C189.778,245.857 189.612,240.357 189.5,235C189.26,230.778 191.093,227.945 195,226.5C196.368,225.007 196.535,223.507 195.5,222C196.381,221.292 197.047,220.458 197.5,219.5C200.738,221.134 202.905,220.134 204,216.5C205.873,215.911 207.54,216.578 209,218.5C210.314,217.687 211.481,216.687 212.5,215.5C213.494,219.452 214.16,223.452 214.5,227.5C213.209,227.263 212.209,227.596 211.5,228.5Z" style="fill:rgb(253,252,253);"/>
                </g>
                <g>
                    <path d="M140.5,197.5C140.693,200.475 139.693,202.975 137.5,205C139.929,205.451 140.096,206.285 138,207.5C135.936,206.409 133.769,206.242 131.5,207C137.217,209.876 139.05,214.043 137,219.5C138.062,218.101 139.395,217.101 141,216.5C142.762,216.944 142.595,217.444 140.5,218C142.135,218.54 143.468,218.04 144.5,216.5C146.534,217.559 148.534,218.559 150.5,219.5C151.85,220.65 151.684,221.317 150,221.5C146.762,219.573 143.262,219.073 139.5,220C138.944,220.383 138.611,220.883 138.5,221.5C137.18,222.942 135.514,223.608 133.5,223.5C134.331,219.524 134.497,215.524 134,211.5C132.429,209.077 130.263,207.744 127.5,207.5L127.5,204.5C130.846,203.997 134.179,203.33 137.5,202.5C138.275,200.604 139.275,198.937 140.5,197.5Z" style="fill:rgb(253,236,250);"/>
                </g>
                <g>
                    <path d="M278.5,197.5C281.779,203.047 285.779,208.047 290.5,212.5L290.5,213.5C289.387,214.946 289.22,216.613 290,218.5C293.825,228.908 299.325,238.408 306.5,247C308.025,248.009 309.692,248.509 311.5,248.5C316.771,250.622 320.438,254.289 322.5,259.5C322.665,262.85 322.498,266.183 322,269.5C320.088,270.692 318.088,271.692 316,272.5C313.798,280.527 308.965,286.193 301.5,289.5C301.937,287.926 302.937,286.759 304.5,286C304.167,285.667 303.833,285.333 303.5,285C306.372,282.463 308.872,279.63 311,276.5C312.274,269.897 312.774,263.23 312.5,256.5C310.019,256.323 308.186,257.323 307,259.5C305.526,263.438 304.359,267.438 303.5,271.5C302.341,273.377 300.674,273.877 298.5,273C291.198,264.214 287.365,254.048 287,242.5C286.5,236.175 286.334,229.842 286.5,223.5L283.5,223.5C282.069,223.881 281.236,224.881 281,226.5C280.333,231.833 279.667,237.167 279,242.5C276.711,288.499 274.378,334.499 272,380.5C271.667,381.5 271.333,382.5 271,383.5C270.282,377.619 267.115,374.285 261.5,373.5L252.5,373.5C253.263,372.732 254.263,372.232 255.5,372C259.833,371.667 264.167,371.333 268.5,371C269,370.5 269.5,370 270,369.5C273.148,312.174 275.982,254.84 278.5,197.5Z" style="fill:rgb(247,134,201);"/>
                </g>
                <g>
                    <path d="M229.5,202.5C228.208,211.962 228.208,221.295 229.5,230.5C229.557,231.609 229.89,232.609 230.5,233.5L227.5,233.5C226.811,232.226 225.977,232.226 225,233.5C224.324,238.871 224.491,244.204 225.5,249.5C224.833,248.833 224.167,248.167 223.5,247.5C223.425,244.794 223.092,242.127 222.5,239.5C222.154,236.115 221.488,232.782 220.5,229.5C221.869,227.299 221.702,225.299 220,223.5C219.667,224.167 219.333,224.833 219,225.5C219.126,219.412 218.292,213.745 216.5,208.5L216.5,207.5C221.563,207.592 225.897,205.926 229.5,202.5Z" style="fill:rgb(245,139,202);"/>
                </g>
                <g>
                    <path d="M248.5,186.5C248.489,188.017 247.823,189.184 246.5,190C244.26,190.977 241.927,191.477 239.5,191.5C239.649,192.552 239.483,193.552 239,194.5C238.667,194.167 238.333,193.833 238,193.5C234.186,197.407 231.853,202.073 231,207.5C230.014,216.649 230.514,225.649 232.5,234.5C231.833,234.167 231.167,233.833 230.5,233.5C229.89,232.609 229.557,231.609 229.5,230.5C229.032,220.056 229.698,209.723 231.5,199.5C235.166,192.494 240.833,188.161 248.5,186.5Z" style="fill:rgb(249,222,246);"/>
                </g>
                <g>
                    <path d="M216.5,207.5L216.5,208.5C214.25,209.13 212.25,210.13 210.5,211.5C205.657,213.418 201.323,216.084 197.5,219.5C191.504,222.141 188.504,226.808 188.5,233.5L187.5,233.5C186.833,233.833 186.167,234.167 185.5,234.5C184.957,234.44 184.624,234.107 184.5,233.5C187.654,229.707 189.654,225.374 190.5,220.5C194.155,219.36 197.155,217.193 199.5,214C205.188,211.82 210.855,209.653 216.5,207.5Z" style="fill:rgb(82,23,102);"/>
                </g>
                <g>
                    <path d="M156.5,208.5C155.542,209.962 154.376,211.295 153,212.5C152.22,214.387 152.387,216.054 153.5,217.5L153.5,223.5C149.964,223.059 146.63,222.059 143.5,220.5C141.793,220.728 140.126,221.062 138.5,221.5C138.611,220.883 138.944,220.383 139.5,220C143.262,219.073 146.762,219.573 150,221.5C151.684,221.317 151.85,220.65 150.5,219.5C151.317,217.031 151.817,214.365 152,211.5C153.129,209.859 154.629,208.859 156.5,208.5Z" style="fill:rgb(247,209,237);"/>
                </g>
                <g>
                    <path d="M257.5,211.5C259.49,217.995 259.99,224.661 259,231.5C258.479,234.582 256.979,235.582 254.5,234.5C252.983,226.742 253.316,219.076 255.5,211.5C256.167,210.167 256.833,210.167 257.5,211.5Z" style="fill:rgb(88,33,107);"/>
                </g>
                <g>
                    <path d="M363.5,224.5C366.524,222.224 369.857,221.891 373.5,223.5L378.5,223.5C377.886,219.865 377.552,216.198 377.5,212.5C378.326,210.736 379.659,209.402 381.5,208.5C383.476,207.573 383.809,206.24 382.5,204.5C379.891,203.77 377.224,203.27 374.5,203C373.837,201.482 372.837,200.315 371.5,199.5C371.868,196.944 371.034,194.944 369,193.5C365.535,195.651 363.702,198.818 363.5,203C360.12,203.339 356.787,203.839 353.5,204.5C353.611,203.883 353.944,203.383 354.5,203C357.226,202.818 359.893,202.318 362.5,201.5C363.23,198.891 363.73,196.224 364,193.5C367,189.5 370,189.5 373,193.5C373.558,201.344 377.558,203.677 385,200.5C387.023,202.769 387.856,205.436 387.5,208.5C384.985,209.164 382.819,210.497 381,212.5C380.319,216.202 380.485,219.869 381.5,223.5C380.152,226.688 377.819,227.855 374.5,227C372.606,225.596 370.606,224.43 368.5,223.5C366.865,224.046 365.199,224.38 363.5,224.5Z" style="fill:rgb(239,143,200);"/>
                </g>
                <g>
                    <path d="M216.5,208.5C218.292,213.745 219.126,219.412 219,225.5C219.333,224.833 219.667,224.167 220,223.5C221.702,225.299 221.869,227.299 220.5,229.5C221.488,232.782 222.154,236.115 222.5,239.5C220.341,234.947 218.174,230.281 216,225.5C215.667,220.5 215.333,215.5 215,210.5C213.644,211.38 212.144,211.714 210.5,211.5C212.25,210.13 214.25,209.13 216.5,208.5Z" style="fill:rgb(233,154,202);"/>
                </g>
                <g>
                    <path d="M255.5,211.5C253.316,219.076 252.983,226.742 254.5,234.5C253.348,233.166 252.348,231.666 251.5,230C252.833,225.667 252.833,221.333 251.5,217C252.483,214.85 253.816,213.017 255.5,211.5Z" style="fill:rgb(245,224,248);"/>
                </g>
                <g>
                    <path d="M274.5,193.5C275.5,193.833 276.167,194.5 276.5,195.5C275.662,207.435 274.995,219.435 274.5,231.5C273.833,232.5 273.167,233.5 272.5,234.5C272.774,220.704 273.441,207.038 274.5,193.5Z" style="fill:rgb(254,234,250);"/>
                </g>
                <g>
                    <path d="M222.5,239.5C223.092,242.127 223.425,244.794 223.5,247.5C222.13,244.381 221.13,241.048 220.5,237.5L217.5,237.5C216.517,237.752 216.517,240.085 217.5,244.5C215.915,250.408 213.081,251.408 209,247.5C209.585,245.236 209.419,242.903 208.5,240.5C208.77,236.171 209.77,232.171 211.5,228.5C212.209,227.596 213.209,227.263 214.5,227.5C214.16,223.452 213.494,219.452 212.5,215.5C211.481,216.687 210.314,217.687 209,218.5C207.54,216.578 205.873,215.911 204,216.5C202.905,220.134 200.738,221.134 197.5,219.5C201.323,216.084 205.657,213.418 210.5,211.5C212.144,211.714 213.644,211.38 215,210.5C215.333,215.5 215.667,220.5 216,225.5C218.174,230.281 220.341,234.947 222.5,239.5Z" style="fill:rgb(249,233,249);"/>
                </g>
                <g>
                    <path d="M294.5,219.5C306.059,234.729 319.059,248.729 333.5,261.5C332.504,261.414 331.671,261.748 331,262.5C329.192,259.514 326.692,257.514 323.5,256.5L323.5,259.5L322.5,259.5C320.438,254.289 316.771,250.622 311.5,248.5C304.682,240.941 298.848,232.608 294,223.5C293.235,221.934 293.402,220.601 294.5,219.5Z" style="fill:rgb(250,235,249);"/>
                </g>
                <g>
                    <path d="M187.5,233.5L188.5,233.5L188.5,256.5L187.5,256.5C184.85,248.942 184.85,241.276 187.5,233.5Z" style="fill:rgb(236,153,199);"/>
                </g>
                <g>
                    <path d="M197.5,219.5C197.047,220.458 196.381,221.292 195.5,222C196.535,223.507 196.368,225.007 195,226.5C191.093,227.945 189.26,230.778 189.5,235C189.612,240.357 189.778,245.857 190,251.5C191.094,253.078 191.928,254.745 192.5,256.5C191.292,255.766 189.959,255.433 188.5,255.5L188.5,233.5C188.504,226.808 191.504,222.141 197.5,219.5Z" style="fill:rgb(249,229,249);"/>
                </g>
                <g>
                    <path d="M211.5,228.5C212.496,228.414 213.329,228.748 214,229.5C214.167,232 214.333,234.5 214.5,237C214.691,240.709 214.025,244.209 212.5,247.5C211.808,246.975 211.308,246.308 211,245.5C210.313,239.796 210.479,234.13 211.5,228.5Z" style="fill:rgb(74,25,92);"/>
                </g>
                <g>
                    <path d="M290.5,213.5C292.218,215.223 293.551,217.223 294.5,219.5C293.402,220.601 293.235,221.934 294,223.5C298.848,232.608 304.682,240.941 311.5,248.5C309.692,248.509 308.025,248.009 306.5,247C299.325,238.408 293.825,228.908 290,218.5C289.22,216.613 289.387,214.946 290.5,213.5Z" style="fill:rgb(232,151,200);"/>
                </g>
                <g>
                    <path d="M361.5,256.5L359.5,256.5L359.5,255.5C361.065,242.795 358.398,241.462 351.5,251.5C347.785,251.577 344.119,251.244 340.5,250.5C341.159,253.455 341.492,256.455 341.5,259.5C340.833,259.5 340.5,259.167 340.5,258.5C338.909,255.039 338.242,251.372 338.5,247.5C342.832,248.097 347.165,248.263 351.5,248C353.019,246.649 354.352,245.149 355.5,243.5C356.723,242.386 358.056,242.219 359.5,243C361.399,247.178 362.065,251.678 361.5,256.5Z" style="fill:rgb(236,148,201);"/>
                </g>
                <g>
                    <path d="M298.5,215.5C304.469,222.31 310.302,229.31 316,236.5C324.057,244.063 332.224,251.396 340.5,258.5C340.5,259.167 340.833,259.5 341.5,259.5C342.865,261.86 344.865,263.527 347.5,264.5C348.82,267.14 350.153,269.807 351.5,272.5L351.5,273.5C350.15,274.483 349.15,275.816 348.5,277.5C346.869,275.941 346.036,273.941 346,271.5C345.184,270.177 344.017,269.511 342.5,269.5C341.5,267.833 340.167,266.5 338.5,265.5C337.055,263.937 335.389,262.604 333.5,261.5C319.059,248.729 306.059,234.729 294.5,219.5C293.551,217.223 292.218,215.223 290.5,213.5L290.5,212.5C291.919,211.549 293.585,211.216 295.5,211.5C295.468,213.619 296.468,214.952 298.5,215.5Z" style="fill:rgb(86,14,108);"/>
                </g>
                <g>
                    <path d="M187.5,233.5C184.85,241.276 184.85,248.942 187.5,256.5C187.82,268.718 189.154,280.718 191.5,292.5C189.886,289.608 188.553,286.608 187.5,283.5C186.036,274.91 183.703,266.577 180.5,258.5C178.281,254.538 177.114,250.205 177,245.5C176.617,244.944 176.117,244.611 175.5,244.5C179.188,241.479 182.521,238.146 185.5,234.5C186.167,234.167 186.833,233.833 187.5,233.5Z" style="fill:rgb(241,135,202);"/>
                </g>
                <g>
                    <path d="M359.5,255.5L359.5,256.5C361.052,259.112 363.386,260.445 366.5,260.5C366.374,263.595 364.707,265.428 361.5,266C360.177,266.816 359.511,267.983 359.5,269.5C358.262,271.214 357.595,273.214 357.5,275.5C355.053,275.385 353.053,274.385 351.5,272.5C350.153,269.807 348.82,267.14 347.5,264.5C347.279,263.265 346.612,262.265 345.5,261.5C345.709,260.914 346.043,260.414 346.5,260C345.258,258.125 343.924,256.291 342.5,254.5C342.709,253.914 343.043,253.414 343.5,253C346.365,252.817 349.031,252.317 351.5,251.5C354.069,250.604 356.069,248.938 357.5,246.5C358.167,249.642 358.834,252.642 359.5,255.5Z" style="fill:rgb(253,248,252);"/>
                </g>
                <g>
                    <path d="M172.5,245.5C172.167,246.167 171.833,246.833 171.5,247.5C163.1,253.682 165.921,255.794 158.5,262.5C160.339,260.473 160.454,260.617 159.787,261.284C158.825,265.796 156.057,262.751 154.686,266.906C154.686,264.906 155.5,265.5 155.5,263.5C155.138,258.901 156.471,254.901 159.5,251.5C160.338,251.158 163.425,247.29 166.5,245.5L172.5,245.5Z" style="fill:rgb(89,32,106);"/>
                </g>
                <g>
                    <path d="M175.5,253.5C175.802,258.214 176.468,262.88 177.5,267.5C178.107,267.376 178.44,267.043 178.5,266.5C180.196,265.909 181.529,266.742 182.5,269C183.185,271.795 183.685,274.628 184,277.5C184.716,279.879 185.883,281.879 187.5,283.5C188.652,289.757 190.318,295.757 192.5,301.5C194.279,306.015 194.779,310.682 194,315.5C190.843,320.764 186.676,321.764 181.5,318.5C175.264,307.977 169.764,296.977 165,285.5C164.119,281.291 162.953,277.291 161.5,273.5L161.5,272.5C159.767,262.015 163.1,253.682 171.5,247.5C173.017,247.489 174.184,246.823 175,245.5C175.236,247.764 175.736,249.931 176.5,252C175.944,252.383 175.611,252.883 175.5,253.5Z" style="fill:rgb(252,248,252);"/>
                </g>
                <g>
                    <path d="M359.5,255.5C358.834,252.642 358.167,249.642 357.5,246.5C356.069,248.938 354.069,250.604 351.5,251.5C358.398,241.462 361.065,242.795 359.5,255.5Z" style="fill:rgb(254,218,246);"/>
                </g>
                <g>
                    <path d="M175.5,244.5C176.117,244.611 176.617,244.944 177,245.5C177.114,250.205 178.281,254.538 180.5,258.5C179.833,260.5 179.167,262.5 178.5,264.5C178.636,261.449 178.302,258.449 177.5,255.5C177.253,254.287 176.586,253.62 175.5,253.5C175.611,252.883 175.944,252.383 176.5,252C175.736,249.931 175.236,247.764 175,245.5C174.184,246.823 173.017,247.489 171.5,247.5C171.833,246.833 172.167,246.167 172.5,245.5C173.391,244.89 174.391,244.557 175.5,244.5Z" style="fill:rgb(231,181,227);"/>
                </g>
                <g>
                    <path d="M351.5,251.5C349.031,252.317 346.365,252.817 343.5,253C343.043,253.414 342.709,253.914 342.5,254.5C343.924,256.291 345.258,258.125 346.5,260C346.043,260.414 345.709,260.914 345.5,261.5C346.612,262.265 347.279,263.265 347.5,264.5C344.865,263.527 342.865,261.86 341.5,259.5C341.492,256.455 341.159,253.455 340.5,250.5C344.119,251.244 347.785,251.577 351.5,251.5Z" style="fill:rgb(249,225,246);"/>
                </g>
                <g>
                    <path d="M233.5,249.5C235.211,253.881 235.877,258.547 235.5,263.5C234.356,259.036 233.69,254.37 233.5,249.5Z" style="fill:rgb(212,175,221);"/>
                </g>
                <g>
                    <path d="M333.5,261.5C333.167,264.5 334.5,265.833 337.5,265.5C338.306,268.285 338.972,271.119 339.5,274C338.669,279.804 338.335,285.638 338.5,291.5C336.146,294.851 333.146,297.518 329.5,299.5C327.8,299.626 326.3,300.293 325,301.5C324.228,301.355 323.561,301.022 323,300.5C320.076,303.164 316.91,306.164 313.5,309.5C308.818,310.268 304.151,311.101 299.5,312C298.748,312.671 298.414,313.504 298.5,314.5C295.122,317.876 292.122,321.543 289.5,325.5C287.72,324.01 287.054,322.01 287.5,319.5L287.5,317.5C289.732,313.997 292.232,310.663 295,307.5C295.49,306.207 295.657,304.873 295.5,303.5C296.167,303.167 296.833,302.833 297.5,302.5C300.165,298.839 303.498,295.839 307.5,293.5C309.763,291.254 311.096,288.587 311.5,285.5C314.508,281.316 317.342,276.983 320,272.5C321,271.833 322,271.167 323,270.5C323.499,266.848 323.665,263.182 323.5,259.5L323.5,256.5C326.692,257.514 329.192,259.514 331,262.5C331.671,261.748 332.504,261.414 333.5,261.5Z" style="fill:rgb(253,250,252);"/>
                </g>
                <g>
                    <path d="M359.5,256.5L361.5,256.5C364.61,258.23 367.61,260.23 370.5,262.5C368.473,263.872 366.473,265.205 364.5,266.5C362.589,267.075 360.922,268.075 359.5,269.5C359.511,267.983 360.177,266.816 361.5,266C364.707,265.428 366.374,263.595 366.5,260.5C363.386,260.445 361.052,259.112 359.5,256.5Z" style="fill:rgb(245,191,227);"/>
                </g>
                <g>
                    <path d="M175.5,253.5C176.586,253.62 177.253,254.287 177.5,255.5C178.302,258.449 178.636,261.449 178.5,264.5L178.5,266.5C178.44,267.043 178.107,267.376 177.5,267.5C176.468,262.88 175.802,258.214 175.5,253.5Z" style="fill:rgb(64,30,75);"/>
                </g>
                <g>
                    <path d="M274.5,231.5C274.052,242.332 273.385,252.999 272.5,263.5L272.5,234.5C273.167,233.5 273.833,232.5 274.5,231.5Z" style="fill:rgb(242,195,225);"/>
                </g>
                <g>
                    <path d="M333.5,261.5C335.389,262.604 337.055,263.937 338.5,265.5C340.881,274.169 340.881,282.836 338.5,291.5C338.335,285.638 338.669,279.804 339.5,274C338.972,271.119 338.306,268.285 337.5,265.5C334.5,265.833 333.167,264.5 333.5,261.5Z" style="fill:rgb(251,228,249);"/>
                </g>
                <g>
                    <path d="M193.5,263.5C195.04,265.838 195.706,268.505 195.5,271.5C194.232,269.095 193.565,266.428 193.5,263.5Z" style="fill:rgb(200,159,208);"/>
                </g>
                <g>
                    <path d="M227.5,233.5C229.167,254.175 231.001,274.841 233,295.5C233.5,302.826 233.666,310.159 233.5,317.5C231.545,300.583 229.878,283.583 228.5,266.5C227.907,260.752 226.907,255.085 225.5,249.5C224.491,244.204 224.324,238.871 225,233.5C225.977,232.226 226.811,232.226 227.5,233.5Z" style="fill:rgb(225,116,202);"/>
                </g>
                <g>
                    <path d="M187.5,256.5L188.5,256.5C188.966,265.96 190.299,275.293 192.5,284.5C193.823,290.105 194.823,295.771 195.5,301.5C194.167,299.167 192.833,296.833 191.5,294.5L191.5,292.5C189.154,280.718 187.82,268.718 187.5,256.5Z" style="fill:rgb(225,118,204);"/>
                </g>
                <g>
                    <path d="M364.5,266.5C363.542,267.962 362.376,269.295 361,270.5C360.505,272.473 360.338,274.473 360.5,276.5C357.873,277.092 355.206,277.425 352.5,277.5C352.567,276.041 352.234,274.708 351.5,273.5L351.5,272.5C353.053,274.385 355.053,275.385 357.5,275.5C357.595,273.214 358.262,271.214 359.5,269.5C360.922,268.075 362.589,267.075 364.5,266.5Z" style="fill:rgb(234,160,209);"/>
                </g>
                <g>
                    <path d="M188.5,255.5C189.959,255.433 191.292,255.766 192.5,256.5C192.993,258.806 193.326,261.139 193.5,263.5C193.565,266.428 194.232,269.095 195.5,271.5C195.366,273.292 195.699,274.958 196.5,276.5C198.599,288.163 200.766,299.829 203,311.5C204.229,315.621 205.729,319.621 207.5,323.5C205.606,322.952 203.94,321.952 202.5,320.5C200.7,310.42 198.867,300.42 197,290.5C195.723,288.253 194.223,286.253 192.5,284.5C190.299,275.293 188.966,265.96 188.5,256.5L188.5,255.5Z" style="fill:rgb(85,17,105);"/>
                </g>
                <g>
                    <path d="M322.5,259.5L323.5,259.5C323.665,263.182 323.499,266.848 323,270.5C322,271.167 321,271.833 320,272.5C317.342,276.983 314.508,281.316 311.5,285.5C307.167,289.167 303.167,293.167 299.5,297.5C299.429,294.976 300.429,292.976 302.5,291.5C302.137,290.817 301.804,290.15 301.5,289.5C308.965,286.193 313.798,280.527 316,272.5C318.088,271.692 320.088,270.692 322,269.5C322.498,266.183 322.665,262.85 322.5,259.5Z" style="fill:rgb(232,152,198);"/>
                </g>
                <g>
                    <path d="M180.5,258.5C183.703,266.577 186.036,274.91 187.5,283.5C185.883,281.879 184.716,279.879 184,277.5C183.685,274.628 183.185,271.795 182.5,269C181.529,266.742 180.196,265.909 178.5,266.5L178.5,264.5C179.167,262.5 179.833,260.5 180.5,258.5Z" style="fill:rgb(253,228,249);"/>
                </g>
                <g>
                    <path d="M338.5,265.5C340.167,266.5 341.5,267.833 342.5,269.5L342.5,270.5C342.552,277.206 342.052,283.872 341,290.5C338.212,295.127 334.378,298.461 329.5,300.5L329.5,299.5C333.146,297.518 336.146,294.851 338.5,291.5C340.881,282.836 340.881,274.169 338.5,265.5Z" style="fill:rgb(230,164,206);"/>
                </g>
                <g>
                    <path d="M187.5,283.5C188.553,286.608 189.886,289.608 191.5,292.5L191.5,294.5C191.993,296.806 192.326,299.139 192.5,301.5C190.318,295.757 188.652,289.757 187.5,283.5Z" style="fill:rgb(251,216,244);"/>
                </g>
                <g>
                    <path d="M311.5,285.5C311.096,288.587 309.763,291.254 307.5,293.5C303.498,295.839 300.165,298.839 297.5,302.5C297.893,300.716 298.559,299.05 299.5,297.5C303.167,293.167 307.167,289.167 311.5,285.5Z" style="fill:rgb(252,226,245);"/>
                </g>
                <g>
                    <path d="M283.5,223.5C281.21,232.328 280.043,241.328 280,250.5C278.333,293.846 276.333,337.179 274,380.5C273.098,386.989 271.598,393.323 269.5,399.5C268.614,398.675 268.281,397.675 268.5,396.5C268.666,390.824 268.499,385.157 268,379.5C265.937,377.266 263.771,375.266 261.5,373.5C267.115,374.285 270.282,377.619 271,383.5C271.333,382.5 271.667,381.5 272,380.5C274.378,334.499 276.711,288.499 279,242.5C279.667,237.167 280.333,231.833 281,226.5C281.236,224.881 282.069,223.881 283.5,223.5Z" style="fill:rgb(241,132,211);"/>
                </g>
                <g>
                    <path d="M301.5,289.5C296.895,293.602 292.395,297.936 288,302.5C285.819,309.795 284.653,317.295 284.5,325C284.506,327.033 284.839,328.866 285.5,330.5C285.328,331.492 285.662,332.158 286.5,332.5L286.5,339.5C286.751,341.17 287.418,342.67 288.5,344C286.527,344.495 284.527,344.662 282.5,344.5C282.321,332.139 282.821,319.806 284,307.5C286.944,300.598 291.111,294.598 296.5,289.5C307.564,281.702 312.397,271.035 311,257.5C308.202,262.101 305.702,266.768 303.5,271.5C304.359,267.438 305.526,263.438 307,259.5C308.186,257.323 310.019,256.323 312.5,256.5C312.774,263.23 312.274,269.897 311,276.5C308.872,279.63 306.372,282.463 303.5,285C303.833,285.333 304.167,285.667 304.5,286C302.937,286.759 301.937,287.926 301.5,289.5Z" style="fill:rgb(231,124,205);"/>
                </g>
                <g>
                    <path d="M155.5,274.5C158.681,284.525 162.681,294.192 167.5,303.5C169.833,308.833 172.167,314.167 174.5,319.5C167.278,313.708 163.111,306.042 162,296.5C161,295.5 160,294.5 159,293.5C157.645,288.867 156.478,284.2 155.5,279.5L155.5,274.5Z" style="fill:rgb(236,125,209);"/>
                </g>
                <g>
                    <path d="M272.5,244.5L272.5,263.5C272.103,276.831 271.77,290.165 271.5,303.5C271.149,310.065 270.149,316.399 268.5,322.5C267.081,321.549 265.415,321.216 263.5,321.5C264.568,320.566 265.901,320.232 267.5,320.5C268.738,295.183 270.404,269.85 272.5,244.5Z" style="fill:rgb(254,239,252);"/>
                </g>
                <g>
                    <path d="M329.5,299.5L329.5,300.5C325.066,304.073 320.399,307.573 315.5,311C311.427,312.029 307.427,312.862 303.5,313.5C301.784,313.629 300.117,313.962 298.5,314.5C298.414,313.504 298.748,312.671 299.5,312C304.151,311.101 308.818,310.268 313.5,309.5C316.91,306.164 320.076,303.164 323,300.5C323.561,301.022 324.228,301.355 325,301.5C326.3,300.293 327.8,299.626 329.5,299.5Z" style="fill:rgb(253,234,250);"/>
                </g>
                <g>
                    <path d="M343.5,271.5C348.781,283.531 346.448,294.031 336.5,303C328.109,308.853 319.775,314.686 311.5,320.5C311.737,319.209 311.404,318.209 310.5,317.5C309.167,316.833 308.167,315.833 307.5,314.5C310.247,314.813 312.914,314.48 315.5,313.5C324.154,306.404 332.987,299.404 342,292.5C342.997,285.533 343.497,278.533 343.5,271.5Z" style="fill:rgb(241,131,204);"/>
                </g>
                <g>
                    <path d="M225.5,259.5C226.324,263.312 226.824,267.312 227,271.5C227.667,285.167 227.667,298.833 227,312.5C225.564,321.446 220.397,325.779 211.5,325.5L209.5,325.5C209.167,324.5 208.5,323.833 207.5,323.5C205.729,319.621 204.229,315.621 203,311.5C200.766,299.829 198.599,288.163 196.5,276.5C197.232,277.808 198.066,279.142 199,280.5C201.673,293.637 204.673,306.637 208,319.5C209.529,320.729 210.696,322.229 211.5,324C213.5,324.667 215.5,324.667 217.5,324C218.831,322.001 220.665,320.167 223,318.5C223.534,314.695 224.534,311.029 226,307.5C226.468,291.495 226.301,275.495 225.5,259.5Z" style="fill:rgb(252,235,251);"/>
                </g>
                <g>
                    <path d="M163.342,282.644C163.946,281.863 165.75,279.669 169,287.5C173.764,298.977 175.264,307.977 181.5,318.5L181.5,319.5C177.791,317.777 175.791,314.777 175.5,310.5C174.325,310.281 173.325,310.614 172.5,311.5C174.494,313.816 175.494,316.482 175.5,319.5L174.5,319.5C172.167,314.167 161.525,284.993 163.342,282.644Z" style="fill:rgb(87,22,106);"/>
                </g>
                <g>
                    <path d="M301.5,289.5C301.804,290.15 302.137,290.817 302.5,291.5C300.429,292.976 299.429,294.976 299.5,297.5C298.559,299.05 297.893,300.716 297.5,302.5C296.833,302.833 296.167,303.167 295.5,303.5C290.61,306.841 287.943,311.508 287.5,317.5L287.5,319.5C285.783,322.845 285.116,326.511 285.5,330.5C284.839,328.866 284.506,327.033 284.5,325C284.653,317.295 285.819,309.795 288,302.5C292.395,297.936 296.895,293.602 301.5,289.5Z" style="fill:rgb(243,138,197);"/>
                </g>
                <g>
                    <path d="M295.5,303.5C295.657,304.873 295.49,306.207 295,307.5C292.232,310.663 289.732,313.997 287.5,317.5C287.943,311.508 290.61,306.841 295.5,303.5Z" style="fill:rgb(241,170,210);"/>
                </g>
                <g>
                    <path d="M228.5,233.5L230.5,233.5C231.167,233.833 231.833,234.167 232.5,234.5C233.254,239.463 233.587,244.463 233.5,249.5C233.69,254.37 234.356,259.036 235.5,263.5C235.505,267.534 235.838,271.534 236.5,275.5C238.695,313.47 240.361,351.47 241.5,389.5C240.778,389.082 240.278,388.416 240,387.5C238.083,344.804 235.749,302.137 233,259.5C232.439,257.275 231.439,255.275 230,253.5C229.757,246.785 229.257,240.119 228.5,233.5Z" style="fill:rgb(90,28,110);"/>
                </g>
                <g>
                    <path d="M342.5,270.5C343.167,270.5 343.5,270.833 343.5,271.5C343.497,278.533 342.997,285.533 342,292.5C332.987,299.404 324.154,306.404 315.5,313.5C312.914,314.48 310.247,314.813 307.5,314.5C306.292,313.766 304.959,313.433 303.5,313.5C307.427,312.862 311.427,312.029 315.5,311C320.399,307.573 325.066,304.073 329.5,300.5C334.378,298.461 338.212,295.127 341,290.5C342.052,283.872 342.552,277.206 342.5,270.5Z" style="fill:rgb(235,149,201);"/>
                </g>
                <g>
                    <path d="M271.5,303.5C271.937,313.065 271.27,322.398 269.5,331.5C269.868,328.467 269.202,325.8 267.5,323.5C268.167,323.5 268.5,323.167 268.5,322.5C270.149,316.399 271.149,310.065 271.5,303.5Z" style="fill:rgb(237,186,220);"/>
                </g>
                <g>
                    <path d="M223.5,247.5C224.167,248.167 224.833,248.833 225.5,249.5C226.907,255.085 227.907,260.752 228.5,266.5C228.667,283.503 228.5,300.503 228,317.5C227.598,318.872 227.098,320.205 226.5,321.5C223.705,322.461 221.705,324.294 220.5,327C217.137,327.927 214.137,327.427 211.5,325.5C220.397,325.779 225.564,321.446 227,312.5C227.667,298.833 227.667,285.167 227,271.5C226.824,267.312 226.324,263.312 225.5,259.5C224.833,255.5 224.167,251.5 223.5,247.5Z" style="fill:rgb(238,167,210);"/>
                </g>
                <g>
                    <path d="M191.5,294.5C192.833,296.833 194.167,299.167 195.5,301.5L195.5,303.5C195.425,309.586 195.591,315.586 196,321.5C192.142,322.718 187.975,322.718 183.5,321.5C183.167,320.5 182.5,319.833 181.5,319.5L181.5,318.5C186.676,321.764 190.843,320.764 194,315.5C194.779,310.682 194.279,306.015 192.5,301.5C192.326,299.139 191.993,296.806 191.5,294.5Z" style="fill:rgb(237,151,206);"/>
                </g>
                <g>
                    <path d="M228.5,266.5C229.878,283.583 231.545,300.583 233.5,317.5C234.074,322.648 233.407,327.482 231.5,332C225.325,334.256 219.325,333.923 213.5,331C211.536,329.549 210.203,327.716 209.5,325.5L211.5,325.5C214.137,327.427 217.137,327.927 220.5,327C221.705,324.294 223.705,322.461 226.5,321.5C227.098,320.205 227.598,318.872 228,317.5C228.5,300.503 228.667,283.503 228.5,266.5Z" style="fill:rgb(246,136,203);"/>
                </g>
                <g>
                    <path d="M342.5,270.5L342.5,269.5C344.017,269.511 345.184,270.177 346,271.5C346.036,273.941 346.869,275.941 348.5,277.5C349.15,275.816 350.15,274.483 351.5,273.5C352.234,274.708 352.567,276.041 352.5,277.5C353.808,290.136 349.474,300.303 339.5,308C331.167,314.333 322.833,320.667 314.5,327C309.589,331.406 305.255,336.24 301.5,341.5C299.473,342.861 297.806,344.527 296.5,346.5L296.5,343.5C293.566,344.288 290.566,344.954 287.5,345.5C285.631,345.493 283.964,345.16 282.5,344.5C284.527,344.662 286.527,344.495 288.5,344C287.418,342.67 286.751,341.17 286.5,339.5C287.167,338.833 287.833,338.167 288.5,337.5L288.5,341.5C293.088,341.916 296.088,339.916 297.5,335.5C302.894,331.108 307.561,326.108 311.5,320.5C319.775,314.686 328.109,308.853 336.5,303C346.448,294.031 348.781,283.531 343.5,271.5C343.5,270.833 343.167,270.5 342.5,270.5Z" style="fill:rgb(102,10,113);"/>
                </g>
                <g>
                    <path d="M301.5,318.5C303.05,317.28 304.716,317.28 306.5,318.5C306.408,320.848 305.408,322.514 303.5,323.5C303.88,321.302 303.213,319.635 301.5,318.5Z" style="fill:rgb(225,156,213);"/>
                </g>
                <g>
                    <path d="M263.5,321.5C265.415,321.216 267.081,321.549 268.5,322.5C268.5,323.167 268.167,323.5 267.5,323.5C265.517,323.843 264.183,323.176 263.5,321.5Z" style="fill:rgb(90,72,87);"/>
                </g>
                <g>
                    <path d="M303.5,313.5C304.959,313.433 306.292,313.766 307.5,314.5C308.167,315.833 309.167,316.833 310.5,317.5C309.789,319.842 308.456,320.175 306.5,318.5C304.716,317.28 303.05,317.28 301.5,318.5C295.114,321.895 291.114,327.229 289.5,334.5C288.596,335.209 288.263,336.209 288.5,337.5C287.833,338.167 287.167,338.833 286.5,339.5L286.5,332.5C287.305,330.085 288.305,327.751 289.5,325.5C292.122,321.543 295.122,317.876 298.5,314.5C300.117,313.962 301.784,313.629 303.5,313.5Z" style="fill:rgb(82,27,94);"/>
                </g>
                <g>
                    <path d="M195.5,303.5C197.257,309.388 199.091,315.388 201,321.5C201.876,328.009 199.043,330.176 192.5,328C188.724,326.791 185.724,324.624 183.5,321.5C187.975,322.718 192.142,322.718 196,321.5C195.591,315.586 195.425,309.586 195.5,303.5Z" style="fill:rgb(237,126,205);"/>
                </g>
                <g>
                    <path d="M287.5,319.5C287.054,322.01 287.72,324.01 289.5,325.5C288.305,327.751 287.305,330.085 286.5,332.5C285.662,332.158 285.328,331.492 285.5,330.5C285.116,326.511 285.783,322.845 287.5,319.5Z" style="fill:rgb(246,186,234);"/>
                </g>
                <g>
                    <path d="M301.5,318.5C303.213,319.635 303.88,321.302 303.5,323.5C298.305,328.206 293.805,333.539 290,339.5C289.506,337.866 289.34,336.199 289.5,334.5C291.114,327.229 295.114,321.895 301.5,318.5Z" style="fill:rgb(249,234,249);"/>
                </g>
                <g>
                    <path d="M310.5,317.5C311.404,318.209 311.737,319.209 311.5,320.5C307.561,326.108 302.894,331.108 297.5,335.5C299.892,331.752 301.892,327.752 303.5,323.5C305.408,322.514 306.408,320.848 306.5,318.5C308.456,320.175 309.789,319.842 310.5,317.5Z" style="fill:rgb(212,106,190);"/>
                </g>
                <g>
                    <path d="M170.5,315.5C170.833,315.5 175.167,319.5 175.5,319.5C181.422,332.042 191.256,336.709 205,333.5C207.215,333.9 209.048,334.9 210.5,336.5C203.533,335.779 196.533,335.279 189.5,335C186.833,333.667 185.167,330.333 182.5,329C180.333,326.833 180.216,332.257 169,327.5C168.506,325.866 170.34,317.199 170.5,315.5Z" style="fill:rgb(235,129,211);"/>
                </g>
                <g>
                    <path d="M236.5,275.5C238.263,281.925 239.43,288.592 240,295.5C242.024,323.568 242.857,351.568 242.5,379.5L245.5,379.5C245.176,374.479 247.176,372.479 251.5,373.5C248.753,375.243 246.753,377.576 245.5,380.5C244.833,385.5 244.167,390.5 243.5,395.5C242.833,393.5 242.167,391.5 241.5,389.5C240.361,351.47 238.695,313.47 236.5,275.5Z" style="fill:rgb(244,224,246);"/>
                </g>
                <g>
                    <path d="M227.5,233.5L228.5,233.5C229.257,240.119 229.757,246.785 230,253.5C231.439,255.275 232.439,257.275 233,259.5C235.749,302.137 238.083,344.804 240,387.5C240.278,388.416 240.778,389.082 241.5,389.5C242.167,391.5 242.833,393.5 243.5,395.5C243.66,397.153 244.326,398.486 245.5,399.5C246.413,401.933 247.413,404.433 248.5,407C253.076,408.476 257.743,408.81 262.5,408C263.056,407.617 263.389,407.117 263.5,406.5L263.5,405.5C264.935,404.087 265.935,402.42 266.5,400.5C266.281,401.675 266.614,402.675 267.5,403.5C271.176,401.101 271.343,401.767 268,405.5C267.51,406.793 267.343,408.127 267.5,409.5C267.167,410.167 266.833,410.833 266.5,411.5C253.47,416.242 243.97,412.242 238,399.5C236.175,391.457 235.009,383.457 234.5,375.5L234.5,338.5C229.547,339.329 224.547,339.663 219.5,339.5C216.345,339.023 213.345,338.023 210.5,336.5C209.048,334.9 207.215,333.9 205,333.5C191.256,336.709 181.422,332.042 175.5,319.5C175.494,316.482 174.494,313.816 172.5,311.5C173.325,310.614 174.325,310.281 175.5,310.5C175.791,314.777 177.791,317.777 181.5,319.5C182.5,319.833 183.167,320.5 183.5,321.5C185.724,324.624 188.724,326.791 192.5,328C199.043,330.176 201.876,328.009 201,321.5C199.091,315.388 197.257,309.388 195.5,303.5L195.5,301.5C194.823,295.771 193.823,290.105 192.5,284.5C194.223,286.253 195.723,288.253 197,290.5C198.867,300.42 200.7,310.42 202.5,320.5C203.94,321.952 205.606,322.952 207.5,323.5C208.5,323.833 209.167,324.5 209.5,325.5C210.203,327.716 211.536,329.549 213.5,331C219.325,333.923 225.325,334.256 231.5,332C233.407,327.482 234.074,322.648 233.5,317.5C233.666,310.159 233.5,302.826 233,295.5C231.001,274.841 229.167,254.175 227.5,233.5Z" style="fill:rgb(95,5,113);"/>
                </g>
                <g>
                    <path d="M303.5,323.5C301.892,327.752 299.892,331.752 297.5,335.5C296.088,339.916 293.088,341.916 288.5,341.5L288.5,337.5C288.263,336.209 288.596,335.209 289.5,334.5C289.34,336.199 289.506,337.866 290,339.5C293.805,333.539 298.305,328.206 303.5,323.5Z" style="fill:rgb(224,145,206);"/>
                </g>
                <g>
                    <path d="M234.5,359.5C233.51,353.355 233.177,347.022 233.5,340.5C228.637,340.819 223.97,340.486 219.5,339.5C224.547,339.663 229.547,339.329 234.5,338.5L234.5,359.5Z" style="fill:rgb(199,95,185);"/>
                </g>
                <g>
                    <path d="M269.5,343.5C269.739,352.384 269.072,361.051 267.5,369.5C267.334,361.16 267.5,352.827 268,344.5C268.383,343.944 268.883,343.611 269.5,343.5Z" style="fill:rgb(250,214,240);"/>
                </g>
                <g>
                    <path d="M276.5,195.5C277.5,195.833 278.167,196.5 278.5,197.5C275.982,254.84 273.148,312.174 270,369.5C269.5,370 269,370.5 268.5,371C264.167,371.333 259.833,371.667 255.5,372C254.263,372.232 253.263,372.732 252.5,373.5L251.5,373.5C251.577,372.25 252.244,371.417 253.5,371C258.351,370.826 263.018,370.326 267.5,369.5C269.072,361.051 269.739,352.384 269.5,343.5L269.5,331.5C271.27,322.398 271.937,313.065 271.5,303.5C271.77,290.165 272.103,276.831 272.5,263.5C273.385,252.999 274.052,242.332 274.5,231.5C274.995,219.435 275.662,207.435 276.5,195.5Z" style="fill:rgb(231,148,197);"/>
                </g>
                <g>
                    <path d="M282.5,344.5C283.964,345.16 285.631,345.493 287.5,345.5C290.566,344.954 293.566,344.288 296.5,343.5L296.5,346.5C292.332,350.334 287.332,352 281.5,351.5C279.939,362.684 278.605,374.184 277.5,386C276.6,389.533 275.6,393.033 274.5,396.5C274.167,394.833 273.833,393.167 273.5,391.5C275.166,372.864 276.833,354.198 278.5,335.5C280.568,338.206 281.901,341.206 282.5,344.5Z" style="fill:rgb(92,2,113);"/>
                </g>
                <g>
                    <path d="M301.5,341.5C301.539,342.583 301.873,343.583 302.5,344.5C297.621,351.327 290.954,353.993 282.5,352.5C282.334,362.506 282.5,372.506 283,382.5C284.16,380.203 285.16,380.536 286,383.5C287.11,379.721 288.61,379.554 290.5,383C296.167,383.333 301.833,383.667 307.5,384C315.62,386.991 323.953,389.157 332.5,390.5C334.03,390.64 335.03,391.307 335.5,392.5C326.092,390.957 316.759,389.124 307.5,387C297.966,386.728 288.632,385.895 279.5,384.5C280.266,373.51 280.933,362.51 281.5,351.5C287.332,352 292.332,350.334 296.5,346.5C297.806,344.527 299.473,342.861 301.5,341.5Z" style="fill:rgb(247,127,206);"/>
                </g>
                <g>
                    <path d="M251.5,373.5L261.5,373.5C263.771,375.266 265.937,377.266 268,379.5C268.499,385.157 268.666,390.824 268.5,396.5C267.833,397.833 267.167,399.167 266.5,400.5C265.935,402.42 264.935,404.087 263.5,405.5C264.36,401.566 264.693,397.566 264.5,393.5C264.818,388.968 264.485,384.634 263.5,380.5C262.942,379.21 261.942,378.377 260.5,378C257.5,377.333 254.5,377.333 251.5,378C250.107,379.171 249.273,380.671 249,382.5C248.333,389.833 248.333,397.167 249,404.5C250.853,406.592 253.186,407.592 256,407.5C258.498,407.083 260.998,406.749 263.5,406.5C263.389,407.117 263.056,407.617 262.5,408C257.743,408.81 253.076,408.476 248.5,407C247.413,404.433 246.413,401.933 245.5,399.5L245.5,380.5C246.753,377.576 248.753,375.243 251.5,373.5Z" style="fill:rgb(81,21,100);"/>
                </g>
                <g>
                    <path d="M263.5,380.5C264.485,384.634 264.818,388.968 264.5,393.5C262.998,396.413 261.998,399.58 261.5,403C257.808,405.159 254.308,404.993 251,402.5C249.976,394.288 250.476,386.288 252.5,378.5C256.312,379.471 259.979,380.137 263.5,380.5Z" style="fill:rgb(253,251,252);"/>
                </g>
                <g>
                    <path d="M263.5,380.5C259.979,380.137 256.312,379.471 252.5,378.5C250.476,386.288 249.976,394.288 251,402.5C254.308,404.993 257.808,405.159 261.5,403C261.998,399.58 262.998,396.413 264.5,393.5C264.693,397.566 264.36,401.566 263.5,405.5L263.5,406.5C260.998,406.749 258.498,407.083 256,407.5C253.186,407.592 250.853,406.592 249,404.5C248.333,397.167 248.333,389.833 249,382.5C249.273,380.671 250.107,379.171 251.5,378C254.5,377.333 257.5,377.333 260.5,378C261.942,378.377 262.942,379.21 263.5,380.5Z" style="fill:rgb(234,209,239);"/>
                </g>
                <g>
                    <path d="M245.5,380.5L245.5,399.5C244.326,398.486 243.66,397.153 243.5,395.5C244.167,390.5 244.833,385.5 245.5,380.5Z" style="fill:rgb(176,135,185);"/>
                </g>
                <g>
                    <path d="M279.5,384.5C288.632,385.895 297.966,386.728 307.5,387C316.759,389.124 326.092,390.957 335.5,392.5C367.442,402.681 367.442,412.847 335.5,423C283.741,434.227 232.075,434.227 180.5,423C172.136,420.986 164.803,417.153 158.5,411.5C156.431,406.515 157.764,402.682 162.5,400C175.038,393.676 188.371,389.676 202.5,388C212.812,386.835 223.145,386.002 233.5,385.5C232.994,396.241 236.66,405.241 244.5,412.5C251.379,414.669 258.379,415.002 265.5,413.5C265.863,412.817 266.196,412.15 266.5,411.5C266.833,410.833 267.167,410.167 267.5,409.5C271.016,406.836 273.85,403.503 276,399.5C277.25,394.396 278.416,389.396 279.5,384.5Z" style="fill:rgb(217,79,176);"/>
                </g>
                <g>
                    <path d="M283.5,223.5L286.5,223.5C286.334,229.842 286.5,236.175 287,242.5C287.365,254.048 291.198,264.214 298.5,273C300.674,273.877 302.341,273.377 303.5,271.5C305.702,266.768 308.202,262.101 311,257.5C312.397,271.035 307.564,281.702 296.5,289.5C291.111,294.598 286.944,300.598 284,307.5C282.821,319.806 282.321,332.139 282.5,344.5C281.901,341.206 280.568,338.206 278.5,335.5C276.833,354.198 275.166,372.864 273.5,391.5C273.833,393.167 274.167,394.833 274.5,396.5C275.6,393.033 276.6,389.533 277.5,386C278.605,374.184 279.939,362.684 281.5,351.5C280.933,362.51 280.266,373.51 279.5,384.5C278.416,389.396 277.25,394.396 276,399.5C273.85,403.503 271.016,406.836 267.5,409.5C267.343,408.127 267.51,406.793 268,405.5C271.343,401.767 271.176,401.101 267.5,403.5C266.614,402.675 266.281,401.675 266.5,400.5C267.167,399.167 267.833,397.833 268.5,396.5C268.281,397.675 268.614,398.675 269.5,399.5C271.598,393.323 273.098,386.989 274,380.5C276.333,337.179 278.333,293.846 280,250.5C280.043,241.328 281.21,232.328 283.5,223.5Z" style="fill:rgb(109,16,117);"/>
                </g>
                <g>
                    <path d="M296.5,289.5C294.508,289.328 292.842,289.995 291.5,291.5C289.585,295.251 287.085,298.585 284,301.5C283.462,304.345 282.462,307.012 281,309.5C281.259,284.837 281.926,260.17 283,235.5C283.202,233.744 283.702,232.078 284.5,230.5C285.613,238.802 286.446,247.136 287,255.5C287.844,263.203 291.344,269.369 297.5,274C300.168,274.567 302.834,275.067 305.5,275.5C303.804,280.7 300.471,284.533 295.5,287C296.252,287.671 296.586,288.504 296.5,289.5Z" style="fill:rgb(90,1,119);"/>
                </g>
                <g>
                    <path d="M234.5,375.5C235.009,383.457 236.175,391.457 238,399.5C243.97,412.242 253.47,416.242 266.5,411.5C266.196,412.15 265.863,412.817 265.5,413.5C258.379,415.002 251.379,414.669 244.5,412.5C236.66,405.241 232.994,396.241 233.5,385.5C234.479,382.375 234.813,379.042 234.5,375.5Z" style="fill:rgb(200,78,181);"/>
                </g>
            </g>
            <g id="Layer5" transform="matrix(0.0250087,0,0,0.0250087,229.995,71.7702)">
                <g transform="matrix(0.850397,0.129533,-0.129533,0.850397,261.01,97.0168)">
                    <path d="M790.631,1144.08C833.367,1136.54 861.904,1095.79 854.37,1053.06C846.836,1010.32 806.085,981.793 763.349,989.329C720.613,996.866 692.076,1037.62 699.61,1080.35C707.144,1123.08 747.896,1151.62 790.631,1144.08Z" style="fill:rgb(86,14,108);fill-rule:nonzero;"/>
                </g>
                <g transform="matrix(0.850397,0.129533,-0.129533,0.850397,261.01,97.0168)">
                    <path d="M1423.7,1032.45C1466.43,1024.92 1494.97,984.164 1487.43,941.432C1479.9,898.699 1439.15,870.166 1396.41,877.703C1353.68,885.239 1325.14,925.991 1332.67,968.724C1340.21,1011.46 1380.96,1039.99 1423.7,1032.45Z" style="fill:rgb(86,14,108);fill-rule:nonzero;"/>
                </g>
                <g transform="matrix(0.850397,0.129533,-0.129533,0.850397,261.01,97.0168)">
                    <path d="M1042.09,1126.57C1037.19,1128.46 1032.71,1131.3 1028.9,1134.92C1025.1,1138.54 1022.04,1142.88 1019.92,1147.68C1017.79,1152.49 1016.63,1157.66 1016.5,1162.91C1016.37,1168.16 1017.28,1173.39 1019.17,1178.29C1024.11,1191.06 1031.51,1202.74 1040.96,1212.66C1050.41,1222.58 1061.72,1230.53 1074.25,1236.07L1074.26,1236.08C1086.77,1241.62 1100.25,1244.64 1113.94,1244.97L1113.97,1244.97C1127.65,1245.29 1141.26,1242.92 1154.03,1237.99L1154.04,1237.99C1166.81,1233.06 1178.49,1225.66 1188.4,1216.21L1188.41,1216.21L1188.41,1216.2C1198.32,1206.76 1206.27,1195.45 1211.81,1182.94C1217.37,1170.41 1220.39,1156.9 1220.71,1143.2C1220.96,1132.6 1216.99,1122.33 1209.67,1114.65C1202.34,1106.98 1192.27,1102.53 1181.66,1102.28C1176.41,1102.15 1171.19,1103.07 1166.29,1104.96C1161.39,1106.86 1156.91,1109.7 1153.11,1113.33C1149.31,1116.95 1146.26,1121.29 1144.14,1126.1C1142.02,1130.9 1140.86,1136.08 1140.74,1141.33C1140.66,1144.5 1139.96,1147.63 1138.67,1150.53L1138.67,1150.54L1138.66,1150.56C1137.37,1153.47 1135.52,1156.1 1133.22,1158.3C1130.91,1160.5 1128.2,1162.22 1125.23,1163.36L1125.21,1163.37C1122.23,1164.52 1119.06,1165.07 1115.87,1165C1112.69,1164.92 1109.55,1164.21 1106.64,1162.92L1106.62,1162.92L1106.61,1162.91C1103.7,1161.62 1101.08,1159.78 1098.88,1157.48L1098.88,1157.47C1096.68,1155.16 1094.96,1152.45 1093.81,1149.47C1091.92,1144.57 1089.08,1140.09 1085.46,1136.29C1081.83,1132.49 1077.5,1129.43 1072.69,1127.31C1067.89,1125.18 1062.71,1124.02 1057.46,1123.89C1052.21,1123.76 1046.99,1124.67 1042.09,1126.57Z" style="fill:rgb(86,14,108);fill-rule:nonzero;"/>
                </g>
                <g transform="matrix(0.850397,0.129533,-0.129533,0.850397,261.01,97.0168)">
                    <path d="M790.631,1144.08C833.367,1136.54 861.904,1095.79 854.37,1053.06C846.836,1010.32 806.085,981.793 763.349,989.329C720.613,996.866 692.076,1037.62 699.61,1080.35C707.144,1123.08 747.896,1151.62 790.631,1144.08Z" style="fill:rgb(86,14,108);fill-rule:nonzero;"/>
                </g>
                <g transform="matrix(0.850397,0.129533,-0.129533,0.850397,261.01,97.0168)">
                    <path d="M1423.7,1032.45C1466.43,1024.92 1494.97,984.164 1487.43,941.432C1479.9,898.699 1439.15,870.166 1396.41,877.703C1353.68,885.239 1325.14,925.991 1332.67,968.724C1340.21,1011.46 1380.96,1039.99 1423.7,1032.45Z" style="fill:rgb(86,14,108);fill-rule:nonzero;"/>
                </g>
                <g transform="matrix(0.850397,0.129533,-0.129533,0.850397,261.01,97.0168)">
                    <path d="M1042.09,1126.57C1037.19,1128.46 1032.71,1131.3 1028.9,1134.92C1025.1,1138.54 1022.04,1142.88 1019.92,1147.68C1017.79,1152.49 1016.63,1157.66 1016.5,1162.91C1016.37,1168.16 1017.28,1173.39 1019.17,1178.29C1024.11,1191.06 1031.51,1202.74 1040.96,1212.66C1050.41,1222.58 1061.72,1230.53 1074.25,1236.07L1074.26,1236.08C1086.77,1241.62 1100.25,1244.64 1113.94,1244.97L1113.97,1244.97C1127.65,1245.29 1141.26,1242.92 1154.03,1237.99L1154.04,1237.99C1166.81,1233.06 1178.49,1225.66 1188.4,1216.21L1188.41,1216.21L1188.41,1216.2C1198.32,1206.76 1206.27,1195.45 1211.81,1182.94C1217.37,1170.41 1220.39,1156.9 1220.71,1143.2C1220.96,1132.6 1216.99,1122.33 1209.67,1114.65C1202.34,1106.98 1192.27,1102.53 1181.66,1102.28C1176.41,1102.15 1171.19,1103.07 1166.29,1104.96C1161.39,1106.86 1156.91,1109.7 1153.11,1113.33C1149.31,1116.95 1146.26,1121.29 1144.14,1126.1C1142.02,1130.9 1140.86,1136.08 1140.74,1141.33C1140.66,1144.5 1139.96,1147.63 1138.67,1150.53L1138.67,1150.54L1138.66,1150.56C1137.37,1153.47 1135.52,1156.1 1133.22,1158.3C1130.91,1160.5 1128.2,1162.22 1125.23,1163.36L1125.21,1163.37C1122.23,1164.52 1119.06,1165.07 1115.87,1165C1112.69,1164.92 1109.55,1164.21 1106.64,1162.92L1106.62,1162.92L1106.61,1162.91C1103.7,1161.62 1101.08,1159.78 1098.88,1157.48L1098.88,1157.47C1096.68,1155.16 1094.96,1152.45 1093.81,1149.47C1091.92,1144.57 1089.08,1140.09 1085.46,1136.29C1081.83,1132.49 1077.5,1129.43 1072.69,1127.31C1067.89,1125.18 1062.71,1124.02 1057.46,1123.89C1052.21,1123.76 1046.99,1124.67 1042.09,1126.57Z" style="fill:rgb(86,14,108);fill-rule:nonzero;"/>
                </g>
                <g transform="matrix(0.673733,0.218909,-0.22019,0.677674,2865.89,884.804)">
                    <path d="M790.631,1144.08C833.367,1136.54 861.904,1095.79 854.37,1053.06C846.836,1010.32 806.085,981.793 763.349,989.329C720.613,996.866 692.076,1037.62 699.61,1080.35C707.144,1123.08 747.896,1151.62 790.631,1144.08Z" style="fill:rgb(86,14,108);fill-rule:nonzero;"/>
                </g>
                <g transform="matrix(0.673733,0.218909,-0.22019,0.677674,2865.89,884.804)">
                    <path d="M1423.7,1032.45C1466.43,1024.92 1494.97,984.164 1487.43,941.432C1479.9,898.699 1439.15,870.166 1396.41,877.703C1353.68,885.239 1325.14,925.991 1332.67,968.724C1340.21,1011.46 1380.96,1039.99 1423.7,1032.45Z" style="fill:rgb(86,14,108);fill-rule:nonzero;"/>
                </g>
                <g transform="matrix(0.673733,0.218909,-0.22019,0.677674,2865.89,884.804)">
                    <path d="M1042.09,1126.57C1037.19,1128.46 1032.71,1131.3 1028.9,1134.92C1025.1,1138.54 1022.04,1142.88 1019.92,1147.68C1017.79,1152.49 1016.63,1157.66 1016.5,1162.91C1016.37,1168.16 1017.28,1173.39 1019.17,1178.29C1024.11,1191.06 1031.51,1202.74 1040.96,1212.66C1050.41,1222.58 1061.72,1230.53 1074.25,1236.07L1074.26,1236.08C1086.77,1241.62 1100.25,1244.64 1113.94,1244.97L1113.97,1244.97C1127.65,1245.29 1141.26,1242.92 1154.03,1237.99L1154.04,1237.99C1166.81,1233.06 1178.49,1225.66 1188.4,1216.21L1188.41,1216.21L1188.41,1216.2C1198.32,1206.76 1206.27,1195.45 1211.81,1182.94C1217.37,1170.41 1220.39,1156.9 1220.71,1143.2C1220.96,1132.6 1216.99,1122.33 1209.67,1114.65C1202.34,1106.98 1192.27,1102.53 1181.66,1102.28C1176.41,1102.15 1171.19,1103.07 1166.29,1104.96C1161.39,1106.86 1156.91,1109.7 1153.11,1113.33C1149.31,1116.95 1146.26,1121.29 1144.14,1126.1C1142.02,1130.9 1140.86,1136.08 1140.74,1141.33C1140.66,1144.5 1139.96,1147.63 1138.67,1150.53L1138.67,1150.54L1138.66,1150.56C1137.37,1153.47 1135.52,1156.1 1133.22,1158.3C1130.91,1160.5 1128.2,1162.22 1125.23,1163.36L1125.21,1163.37C1122.23,1164.52 1119.06,1165.07 1115.87,1165C1112.69,1164.92 1109.55,1164.21 1106.64,1162.92L1106.62,1162.92L1106.61,1162.91C1103.7,1161.62 1101.08,1159.78 1098.88,1157.48L1098.88,1157.47C1096.68,1155.16 1094.96,1152.45 1093.81,1149.47C1091.92,1144.57 1089.08,1140.09 1085.46,1136.29C1081.83,1132.49 1077.5,1129.43 1072.69,1127.31C1067.89,1125.18 1062.71,1124.02 1057.46,1123.89C1052.21,1123.76 1046.99,1124.67 1042.09,1126.57Z" style="fill:rgb(86,14,108);fill-rule:nonzero;"/>
                </g>
                <g transform="matrix(0.708404,0,-6.54297e-16,0.708404,-2004,1069.05)">
                    <path d="M790.631,1144.08C833.367,1136.54 861.904,1095.79 854.37,1053.06C846.836,1010.32 806.085,981.793 763.349,989.329C720.613,996.866 692.076,1037.62 699.61,1080.35C707.144,1123.08 747.896,1151.62 790.631,1144.08Z" style="fill:rgb(86,14,108);fill-rule:nonzero;"/>
                </g>
                <g transform="matrix(0.708404,0,-6.54297e-16,0.708404,-2004,1069.05)">
                    <path d="M1423.7,1032.45C1466.43,1024.92 1494.97,984.164 1487.43,941.432C1479.9,898.699 1439.15,870.166 1396.41,877.703C1353.68,885.239 1325.14,925.991 1332.67,968.724C1340.21,1011.46 1380.96,1039.99 1423.7,1032.45Z" style="fill:rgb(86,14,108);fill-rule:nonzero;"/>
                </g>
                <g transform="matrix(0.708404,0,-6.54297e-16,0.708404,-2004,1069.05)">
                    <path d="M1042.09,1126.57C1037.19,1128.46 1032.71,1131.3 1028.9,1134.92C1025.1,1138.54 1022.04,1142.88 1019.92,1147.68C1017.79,1152.49 1016.63,1157.66 1016.5,1162.91C1016.37,1168.16 1017.28,1173.39 1019.17,1178.29C1024.11,1191.06 1031.51,1202.74 1040.96,1212.66C1050.41,1222.58 1061.72,1230.53 1074.25,1236.07L1074.26,1236.08C1086.77,1241.62 1100.25,1244.64 1113.94,1244.97L1113.97,1244.97C1127.65,1245.29 1141.26,1242.92 1154.03,1237.99L1154.04,1237.99C1166.81,1233.06 1178.49,1225.66 1188.4,1216.21L1188.41,1216.21L1188.41,1216.2C1198.32,1206.76 1206.27,1195.45 1211.81,1182.94C1217.37,1170.41 1220.39,1156.9 1220.71,1143.2C1220.96,1132.6 1216.99,1122.33 1209.67,1114.65C1202.34,1106.98 1192.27,1102.53 1181.66,1102.28C1176.41,1102.15 1171.19,1103.07 1166.29,1104.96C1161.39,1106.86 1156.91,1109.7 1153.11,1113.33C1149.31,1116.95 1146.26,1121.29 1144.14,1126.1C1142.02,1130.9 1140.86,1136.08 1140.74,1141.33C1140.66,1144.5 1139.96,1147.63 1138.67,1150.53L1138.67,1150.54L1138.66,1150.56C1137.37,1153.47 1135.52,1156.1 1133.22,1158.3C1130.91,1160.5 1128.2,1162.22 1125.23,1163.36L1125.21,1163.37C1122.23,1164.52 1119.06,1165.07 1115.87,1165C1112.69,1164.92 1109.55,1164.21 1106.64,1162.92L1106.62,1162.92L1106.61,1162.91C1103.7,1161.62 1101.08,1159.78 1098.88,1157.48L1098.88,1157.47C1096.68,1155.16 1094.96,1152.45 1093.81,1149.47C1091.92,1144.57 1089.08,1140.09 1085.46,1136.29C1081.83,1132.49 1077.5,1129.43 1072.69,1127.31C1067.89,1125.18 1062.71,1124.02 1057.46,1123.89C1052.21,1123.76 1046.99,1124.67 1042.09,1126.57Z" style="fill:rgb(86,14,108);fill-rule:nonzero;"/>
                </g>
                <g transform="matrix(0.700327,0.106674,-0.106674,0.700327,-3521.44,2582.95)">
                    <path d="M790.631,1144.08C833.367,1136.54 861.904,1095.79 854.37,1053.06C846.836,1010.32 806.085,981.793 763.349,989.329C720.613,996.866 692.076,1037.62 699.61,1080.35C707.144,1123.08 747.896,1151.62 790.631,1144.08Z" style="fill:rgb(86,14,108);fill-rule:nonzero;"/>
                </g>
                <g transform="matrix(0.700327,0.106674,-0.106674,0.700327,-3521.44,2582.95)">
                    <path d="M1423.7,1032.45C1466.43,1024.92 1494.97,984.164 1487.43,941.432C1479.9,898.699 1439.15,870.166 1396.41,877.703C1353.68,885.239 1325.14,925.991 1332.67,968.724C1340.21,1011.46 1380.96,1039.99 1423.7,1032.45Z" style="fill:rgb(86,14,108);fill-rule:nonzero;"/>
                </g>
                <g transform="matrix(0.700327,0.106674,-0.106674,0.700327,-3521.44,2582.95)">
                    <path d="M1042.09,1126.57C1037.19,1128.46 1032.71,1131.3 1028.9,1134.92C1025.1,1138.54 1022.04,1142.88 1019.92,1147.68C1017.79,1152.49 1016.63,1157.66 1016.5,1162.91C1016.37,1168.16 1017.28,1173.39 1019.17,1178.29C1024.11,1191.06 1031.51,1202.74 1040.96,1212.66C1050.41,1222.58 1061.72,1230.53 1074.25,1236.07L1074.26,1236.08C1086.77,1241.62 1100.25,1244.64 1113.94,1244.97L1113.97,1244.97C1127.65,1245.29 1141.26,1242.92 1154.03,1237.99L1154.04,1237.99C1166.81,1233.06 1178.49,1225.66 1188.4,1216.21L1188.41,1216.21L1188.41,1216.2C1198.32,1206.76 1206.27,1195.45 1211.81,1182.94C1217.37,1170.41 1220.39,1156.9 1220.71,1143.2C1220.96,1132.6 1216.99,1122.33 1209.67,1114.65C1202.34,1106.98 1192.27,1102.53 1181.66,1102.28C1176.41,1102.15 1171.19,1103.07 1166.29,1104.96C1161.39,1106.86 1156.91,1109.7 1153.11,1113.33C1149.31,1116.95 1146.26,1121.29 1144.14,1126.1C1142.02,1130.9 1140.86,1136.08 1140.74,1141.33C1140.66,1144.5 1139.96,1147.63 1138.67,1150.53L1138.67,1150.54L1138.66,1150.56C1137.37,1153.47 1135.52,1156.1 1133.22,1158.3C1130.91,1160.5 1128.2,1162.22 1125.23,1163.36L1125.21,1163.37C1122.23,1164.52 1119.06,1165.07 1115.87,1165C1112.69,1164.92 1109.55,1164.21 1106.64,1162.92L1106.62,1162.92L1106.61,1162.91C1103.7,1161.62 1101.08,1159.78 1098.88,1157.48L1098.88,1157.47C1096.68,1155.16 1094.96,1152.45 1093.81,1149.47C1091.92,1144.57 1089.08,1140.09 1085.46,1136.29C1081.83,1132.49 1077.5,1129.43 1072.69,1127.31C1067.89,1125.18 1062.71,1124.02 1057.46,1123.89C1052.21,1123.76 1046.99,1124.67 1042.09,1126.57Z" style="fill:rgb(86,14,108);fill-rule:nonzero;"/>
                </g>
                <g transform="matrix(0.757965,0.0397232,-0.0397232,0.757965,-4215.29,4714.29)">
                    <path d="M790.631,1144.08C833.367,1136.54 861.904,1095.79 854.37,1053.06C846.836,1010.32 806.085,981.793 763.349,989.329C720.613,996.866 692.076,1037.62 699.61,1080.35C707.144,1123.08 747.896,1151.62 790.631,1144.08Z" style="fill:rgb(86,14,108);fill-rule:nonzero;"/>
                </g>
                <g transform="matrix(0.757965,0.0397232,-0.0397232,0.757965,-4215.29,4714.29)">
                    <path d="M1423.7,1032.45C1466.43,1024.92 1494.97,984.164 1487.43,941.432C1479.9,898.699 1439.15,870.166 1396.41,877.703C1353.68,885.239 1325.14,925.991 1332.67,968.724C1340.21,1011.46 1380.96,1039.99 1423.7,1032.45Z" style="fill:rgb(86,14,108);fill-rule:nonzero;"/>
                </g>
                <g transform="matrix(0.757965,0.0397232,-0.0397232,0.757965,-4215.29,4714.29)">
                    <path d="M1042.09,1126.57C1037.19,1128.46 1032.71,1131.3 1028.9,1134.92C1025.1,1138.54 1022.04,1142.88 1019.92,1147.68C1017.79,1152.49 1016.63,1157.66 1016.5,1162.91C1016.37,1168.16 1017.28,1173.39 1019.17,1178.29C1024.11,1191.06 1031.51,1202.74 1040.96,1212.66C1050.41,1222.58 1061.72,1230.53 1074.25,1236.07L1074.26,1236.08C1086.77,1241.62 1100.25,1244.64 1113.94,1244.97L1113.97,1244.97C1127.65,1245.29 1141.26,1242.92 1154.03,1237.99L1154.04,1237.99C1166.81,1233.06 1178.49,1225.66 1188.4,1216.21L1188.41,1216.21L1188.41,1216.2C1198.32,1206.76 1206.27,1195.45 1211.81,1182.94C1217.37,1170.41 1220.39,1156.9 1220.71,1143.2C1220.96,1132.6 1216.99,1122.33 1209.67,1114.65C1202.34,1106.98 1192.27,1102.53 1181.66,1102.28C1176.41,1102.15 1171.19,1103.07 1166.29,1104.96C1161.39,1106.86 1156.91,1109.7 1153.11,1113.33C1149.31,1116.95 1146.26,1121.29 1144.14,1126.1C1142.02,1130.9 1140.86,1136.08 1140.74,1141.33C1140.66,1144.5 1139.96,1147.63 1138.67,1150.53L1138.67,1150.54L1138.66,1150.56C1137.37,1153.47 1135.52,1156.1 1133.22,1158.3C1130.91,1160.5 1128.2,1162.22 1125.23,1163.36L1125.21,1163.37C1122.23,1164.52 1119.06,1165.07 1115.87,1165C1112.69,1164.92 1109.55,1164.21 1106.64,1162.92L1106.62,1162.92L1106.61,1162.91C1103.7,1161.62 1101.08,1159.78 1098.88,1157.48L1098.88,1157.47C1096.68,1155.16 1094.96,1152.45 1093.81,1149.47C1091.92,1144.57 1089.08,1140.09 1085.46,1136.29C1081.83,1132.49 1077.5,1129.43 1072.69,1127.31C1067.89,1125.18 1062.71,1124.02 1057.46,1123.89C1052.21,1123.76 1046.99,1124.67 1042.09,1126.57Z" style="fill:rgb(86,14,108);fill-rule:nonzero;"/>
                </g>
                <g transform="matrix(0.70151,0.0985908,-0.0985908,0.70151,4265.98,2590.53)">
                    <path d="M790.631,1144.08C833.367,1136.54 861.904,1095.79 854.37,1053.06C846.836,1010.32 806.085,981.793 763.349,989.329C720.613,996.866 692.076,1037.62 699.61,1080.35C707.144,1123.08 747.896,1151.62 790.631,1144.08Z" style="fill:rgb(86,14,108);fill-rule:nonzero;"/>
                </g>
                <g transform="matrix(0.70151,0.0985908,-0.0985908,0.70151,4265.98,2590.53)">
                    <path d="M1423.7,1032.45C1466.43,1024.92 1494.97,984.164 1487.43,941.432C1479.9,898.699 1439.15,870.166 1396.41,877.703C1353.68,885.239 1325.14,925.991 1332.67,968.724C1340.21,1011.46 1380.96,1039.99 1423.7,1032.45Z" style="fill:rgb(86,14,108);fill-rule:nonzero;"/>
                </g>
                <g transform="matrix(0.70151,0.0985908,-0.0985908,0.70151,4265.98,2590.53)">
                    <path d="M1042.09,1126.57C1037.19,1128.46 1032.71,1131.3 1028.9,1134.92C1025.1,1138.54 1022.04,1142.88 1019.92,1147.68C1017.79,1152.49 1016.63,1157.66 1016.5,1162.91C1016.37,1168.16 1017.28,1173.39 1019.17,1178.29C1024.11,1191.06 1031.51,1202.74 1040.96,1212.66C1050.41,1222.58 1061.72,1230.53 1074.25,1236.07L1074.26,1236.08C1086.77,1241.62 1100.25,1244.64 1113.94,1244.97L1113.97,1244.97C1127.65,1245.29 1141.26,1242.92 1154.03,1237.99L1154.04,1237.99C1166.81,1233.06 1178.49,1225.66 1188.4,1216.21L1188.41,1216.21L1188.41,1216.2C1198.32,1206.76 1206.27,1195.45 1211.81,1182.94C1217.37,1170.41 1220.39,1156.9 1220.71,1143.2C1220.96,1132.6 1216.99,1122.33 1209.67,1114.65C1202.34,1106.98 1192.27,1102.53 1181.66,1102.28C1176.41,1102.15 1171.19,1103.07 1166.29,1104.96C1161.39,1106.86 1156.91,1109.7 1153.11,1113.33C1149.31,1116.95 1146.26,1121.29 1144.14,1126.1C1142.02,1130.9 1140.86,1136.08 1140.74,1141.33C1140.66,1144.5 1139.96,1147.63 1138.67,1150.53L1138.67,1150.54L1138.66,1150.56C1137.37,1153.47 1135.52,1156.1 1133.22,1158.3C1130.91,1160.5 1128.2,1162.22 1125.23,1163.36L1125.21,1163.37C1122.23,1164.52 1119.06,1165.07 1115.87,1165C1112.69,1164.92 1109.55,1164.21 1106.64,1162.92L1106.62,1162.92L1106.61,1162.91C1103.7,1161.62 1101.08,1159.78 1098.88,1157.48L1098.88,1157.47C1096.68,1155.16 1094.96,1152.45 1093.81,1149.47C1091.92,1144.57 1089.08,1140.09 1085.46,1136.29C1081.83,1132.49 1077.5,1129.43 1072.69,1127.31C1067.89,1125.18 1062.71,1124.02 1057.46,1123.89C1052.21,1123.76 1046.99,1124.67 1042.09,1126.57Z" style="fill:rgb(86,14,108);fill-rule:nonzero;"/>
                </g>
                <g transform="matrix(0.736459,0.18362,-0.18362,0.736459,4957.74,4579.75)">
                    <path d="M790.631,1144.08C833.367,1136.54 861.904,1095.79 854.37,1053.06C846.836,1010.32 806.085,981.793 763.349,989.329C720.613,996.866 692.076,1037.62 699.61,1080.35C707.144,1123.08 747.896,1151.62 790.631,1144.08Z" style="fill:rgb(86,14,108);fill-rule:nonzero;"/>
                </g>
                <g transform="matrix(0.736459,0.18362,-0.18362,0.736459,4957.74,4579.75)">
                    <path d="M1423.7,1032.45C1466.43,1024.92 1494.97,984.164 1487.43,941.432C1479.9,898.699 1439.15,870.166 1396.41,877.703C1353.68,885.239 1325.14,925.991 1332.67,968.724C1340.21,1011.46 1380.96,1039.99 1423.7,1032.45Z" style="fill:rgb(86,14,108);fill-rule:nonzero;"/>
                </g>
                <g transform="matrix(0.736459,0.18362,-0.18362,0.736459,4957.74,4579.75)">
                    <path d="M1042.09,1126.57C1037.19,1128.46 1032.71,1131.3 1028.9,1134.92C1025.1,1138.54 1022.04,1142.88 1019.92,1147.68C1017.79,1152.49 1016.63,1157.66 1016.5,1162.91C1016.37,1168.16 1017.28,1173.39 1019.17,1178.29C1024.11,1191.06 1031.51,1202.74 1040.96,1212.66C1050.41,1222.58 1061.72,1230.53 1074.25,1236.07L1074.26,1236.08C1086.77,1241.62 1100.25,1244.64 1113.94,1244.97L1113.97,1244.97C1127.65,1245.29 1141.26,1242.92 1154.03,1237.99L1154.04,1237.99C1166.81,1233.06 1178.49,1225.66 1188.4,1216.21L1188.41,1216.21L1188.41,1216.2C1198.32,1206.76 1206.27,1195.45 1211.81,1182.94C1217.37,1170.41 1220.39,1156.9 1220.71,1143.2C1220.96,1132.6 1216.99,1122.33 1209.67,1114.65C1202.34,1106.98 1192.27,1102.53 1181.66,1102.28C1176.41,1102.15 1171.19,1103.07 1166.29,1104.96C1161.39,1106.86 1156.91,1109.7 1153.11,1113.33C1149.31,1116.95 1146.26,1121.29 1144.14,1126.1C1142.02,1130.9 1140.86,1136.08 1140.74,1141.33C1140.66,1144.5 1139.96,1147.63 1138.67,1150.53L1138.67,1150.54L1138.66,1150.56C1137.37,1153.47 1135.52,1156.1 1133.22,1158.3C1130.91,1160.5 1128.2,1162.22 1125.23,1163.36L1125.21,1163.37C1122.23,1164.52 1119.06,1165.07 1115.87,1165C1112.69,1164.92 1109.55,1164.21 1106.64,1162.92L1106.62,1162.92L1106.61,1162.91C1103.7,1161.62 1101.08,1159.78 1098.88,1157.48L1098.88,1157.47C1096.68,1155.16 1094.96,1152.45 1093.81,1149.47C1091.92,1144.57 1089.08,1140.09 1085.46,1136.29C1081.83,1132.49 1077.5,1129.43 1072.69,1127.31C1067.89,1125.18 1062.71,1124.02 1057.46,1123.89C1052.21,1123.76 1046.99,1124.67 1042.09,1126.57Z" style="fill:rgb(86,14,108);fill-rule:nonzero;"/>
                </g>
                <g transform="matrix(0.698668,0.296567,-0.296567,0.698668,4519.08,6575.6)">
                    <path d="M790.631,1144.08C833.367,1136.54 861.904,1095.79 854.37,1053.06C846.836,1010.32 806.085,981.793 763.349,989.329C720.613,996.866 692.076,1037.62 699.61,1080.35C707.144,1123.08 747.896,1151.62 790.631,1144.08Z" style="fill:rgb(86,14,108);fill-rule:nonzero;"/>
                </g>
                <g transform="matrix(0.698668,0.296567,-0.296567,0.698668,4519.08,6575.6)">
                    <path d="M1423.7,1032.45C1466.43,1024.92 1494.97,984.164 1487.43,941.432C1479.9,898.699 1439.15,870.166 1396.41,877.703C1353.68,885.239 1325.14,925.991 1332.67,968.724C1340.21,1011.46 1380.96,1039.99 1423.7,1032.45Z" style="fill:rgb(86,14,108);fill-rule:nonzero;"/>
                </g>
                <g transform="matrix(0.698668,0.296567,-0.296567,0.698668,4519.08,6575.6)">
                    <path d="M1042.09,1126.57C1037.19,1128.46 1032.71,1131.3 1028.9,1134.92C1025.1,1138.54 1022.04,1142.88 1019.92,1147.68C1017.79,1152.49 1016.63,1157.66 1016.5,1162.91C1016.37,1168.16 1017.28,1173.39 1019.17,1178.29C1024.11,1191.06 1031.51,1202.74 1040.96,1212.66C1050.41,1222.58 1061.72,1230.53 1074.25,1236.07L1074.26,1236.08C1086.77,1241.62 1100.25,1244.64 1113.94,1244.97L1113.97,1244.97C1127.65,1245.29 1141.26,1242.92 1154.03,1237.99L1154.04,1237.99C1166.81,1233.06 1178.49,1225.66 1188.4,1216.21L1188.41,1216.21L1188.41,1216.2C1198.32,1206.76 1206.27,1195.45 1211.81,1182.94C1217.37,1170.41 1220.39,1156.9 1220.71,1143.2C1220.96,1132.6 1216.99,1122.33 1209.67,1114.65C1202.34,1106.98 1192.27,1102.53 1181.66,1102.28C1176.41,1102.15 1171.19,1103.07 1166.29,1104.96C1161.39,1106.86 1156.91,1109.7 1153.11,1113.33C1149.31,1116.95 1146.26,1121.29 1144.14,1126.1C1142.02,1130.9 1140.86,1136.08 1140.74,1141.33C1140.66,1144.5 1139.96,1147.63 1138.67,1150.53L1138.67,1150.54L1138.66,1150.56C1137.37,1153.47 1135.52,1156.1 1133.22,1158.3C1130.91,1160.5 1128.2,1162.22 1125.23,1163.36L1125.21,1163.37C1122.23,1164.52 1119.06,1165.07 1115.87,1165C1112.69,1164.92 1109.55,1164.21 1106.64,1162.92L1106.62,1162.92L1106.61,1162.91C1103.7,1161.62 1101.08,1159.78 1098.88,1157.48L1098.88,1157.47C1096.68,1155.16 1094.96,1152.45 1093.81,1149.47C1091.92,1144.57 1089.08,1140.09 1085.46,1136.29C1081.83,1132.49 1077.5,1129.43 1072.69,1127.31C1067.89,1125.18 1062.71,1124.02 1057.46,1123.89C1052.21,1123.76 1046.99,1124.67 1042.09,1126.57Z" style="fill:rgb(86,14,108);fill-rule:nonzero;"/>
                </g>
            </g>
        </g>
    </g>
</svg>
